<?xml version="1.0" encoding="UTF-8" standalone="no"?>
<svg
   xmlns:dc="http://purl.org/dc/elements/1.1/"
   xmlns:cc="http://creativecommons.org/ns#"
   xmlns:rdf="http://www.w3.org/1999/02/22-rdf-syntax-ns#"
   xmlns:svg="http://www.w3.org/2000/svg"
   xmlns="http://www.w3.org/2000/svg"
   xmlns:sodipodi="http://sodipodi.sourceforge.net/DTD/sodipodi-0.dtd"
   xmlns:inkscape="http://www.inkscape.org/namespaces/inkscape"
   width="210mm"
   height="297mm"
   viewBox="0 0 210 297"
   version="1.1"
   id="svg8"
   inkscape:version="1.0.1 (3bc2e813f5, 2020-09-07)"
   sodipodi:docname="leszy.svg">
  <defs
     id="defs2">
    <inkscape:path-effect
       effect="spiro"
       id="path-effect987"
       is_visible="true"
       lpeversion="1" />
  </defs>
  <sodipodi:namedview
     id="base"
     pagecolor="#ffffff"
     bordercolor="#666666"
     borderopacity="1.0"
     inkscape:pageopacity="0.0"
     inkscape:pageshadow="2"
     inkscape:zoom="4"
     inkscape:cx="216.19266"
     inkscape:cy="77.14821"
     inkscape:document-units="mm"
     inkscape:current-layer="layer1"
     inkscape:document-rotation="0"
     showgrid="false"
     inkscape:window-width="1920"
     inkscape:window-height="1017"
     inkscape:window-x="-8"
     inkscape:window-y="-8"
     inkscape:window-maximized="1"
     inkscape:snap-grids="true"
     inkscape:snap-to-guides="false"
     inkscape:snap-others="true"
     inkscape:object-nodes="true"
     inkscape:snap-nodes="true"
     inkscape:snap-page="true"
     inkscape:snap-object-midpoints="true"
     inkscape:snap-center="true"
     inkscape:snap-bbox="false"
     inkscape:bbox-nodes="true"
     inkscape:bbox-paths="true"
     inkscape:snap-bbox-edge-midpoints="true"
     inkscape:snap-bbox-midpoints="true"
     inkscape:object-paths="true"
     inkscape:snap-intersection-paths="true"
     inkscape:snap-smooth-nodes="true"
     inkscape:snap-midpoints="true"
     inkscape:snap-global="false" />
  <metadata
     id="metadata5">
    <rdf:RDF>
      <cc:Work
         rdf:about="">
        <dc:format>image/svg+xml</dc:format>
        <dc:type
           rdf:resource="http://purl.org/dc/dcmitype/StillImage" />
        <dc:title></dc:title>
      </cc:Work>
    </rdf:RDF>
  </metadata>
  <g
     inkscape:label="Layer 1"
     inkscape:groupmode="layer"
     id="layer1">
    <rect
       style="fill:#800080;stroke:none;stroke-width:0.257001;stroke-linecap:round;stroke-linejoin:round"
       id="rect835"
       width="33.867001"
       height="33.866665"
       x="0"
       y="0" />
    <path
       id="path117"
       style="fill:#800000;stroke:#000000;stroke-width:0.26458333;stroke-linecap:round;stroke-linejoin:round;stroke-miterlimit:4;stroke-dasharray:none"
       d="m 20.254324,26.987509 c 0,1.83404 -1.486784,3.320824 -3.320824,3.320824 -1.83404,0 -3.320824,-1.486784 -3.320824,-3.320824 0,-1.83404 1.486784,-0.674991 3.320824,-0.674991 1.83404,0 3.320824,-1.159049 3.320824,0.674991 z"
       sodipodi:nodetypes="sssss" />
    <ellipse
       style="fill:#800000;stroke:#000000;stroke-width:0.13229167;stroke-linecap:round;stroke-linejoin:round;stroke-miterlimit:4;stroke-dasharray:none"
       id="path120"
       cx="16.942932"
       cy="26.414581"
       rx="3.1217568"
       ry="1.9293519" />
    <path
       id="ellipse126"
       style="fill:#552200;stroke:none;stroke-width:0.417424;stroke-linecap:round;stroke-linejoin:round"
       d="m 19.936388,26.991209 c 0,0.873465 -1.228617,1.2914 -2.923491,1.2914 -1.694873,0 -2.93964,-0.337338 -2.939639,-1.210803 0,-0.873465 1.244766,-1.952292 2.939639,-1.952292 1.694873,0 2.92349,0.99823 2.923491,1.871695 z"
       sodipodi:nodetypes="sssss" />
    <ellipse
       style="fill:none;stroke:#000000;stroke-width:0.26458333;stroke-linecap:round;stroke-linejoin:round;stroke-miterlimit:4;stroke-dasharray:none"
       id="ellipse128"
       cx="16.942932"
       cy="26.414581"
       rx="3.1856706"
       ry="1.9271199" />
    <path
       id="rect131"
       style="fill:#803300;stroke:#000000;stroke-width:0.26458333;stroke-linecap:round;stroke-linejoin:round;stroke-miterlimit:4;stroke-dasharray:none"
       d="m 16.106678,18.785417 h 1.653645 v 8.268229 c -0.551215,0.695301 -1.10243,0.534987 -1.653645,0 z"
       sodipodi:nodetypes="ccccc" />
    <path
       id="rect957"
       style="fill:#008000;stroke:#000000;stroke-width:0.264583;stroke-linecap:round;stroke-linejoin:round;stroke-miterlimit:4;stroke-dasharray:none"
       d="m 17.063679,15.382939 4.266406,7.34323 c -2.931056,0.852763 -5.862112,0.732841 -8.793168,0 z"
       sodipodi:nodetypes="cccc" />
    <path
       id="path980"
       style="fill:#803300;fill-opacity:1;stroke:#000000;stroke-width:0.264583;stroke-linecap:round;stroke-linejoin:round;stroke-miterlimit:4;stroke-dasharray:none"
       d="M 23.799758,13.011079 H 19.96444 V 11.09342 h 3.835318 c 2.669738,-4.9121394 1.118027,-1.046345 0,1.917659 z"
       sodipodi:nodetypes="ccccc" />
    <path
       id="rect964"
       style="fill:#803300;fill-opacity:1;stroke:#000000;stroke-width:0.264583;stroke-linecap:round;stroke-linejoin:round;stroke-miterlimit:4;stroke-dasharray:none"
       d="m 10.500352,11.178548 h 3.835318 v 1.917659 h -3.835318 c -2.6697376,4.912139 -1.1180266,1.046345 0,-1.917659 z"
       sodipodi:nodetypes="ccccc" />
    <path
       id="rect962"
       style="fill:#008000;stroke:#000000;stroke-width:0.264583;stroke-linecap:round;stroke-linejoin:round;stroke-miterlimit:4;stroke-dasharray:none"
       d="m 12.997823,8.4335938 h 7.871354 c -0.448813,2.7791432 -1.687621,5.8317462 0,7.8713542 h -7.871354 c 2.012163,-2.169425 0.535123,-5.126735 0,-7.8713542 z"
       sodipodi:nodetypes="ccccc" />
    <g
       id="g1003"
       transform="matrix(-0.78143374,-0.62398823,-0.62398823,0.78143374,44.317,12.52054)">
      <path
         id="path999"
         style="fill:#008000;fill-opacity:1;stroke:#000000;stroke-width:0.264583;stroke-linecap:round;stroke-linejoin:round;stroke-miterlimit:4;stroke-dasharray:none"
         d="m 24.662306,15.734968 c 0.673398,-1.173429 1.458463,-1.258115 2.38125,0 0.667029,1.725202 0.173845,3.239457 -0.514494,4.718228 -1.322292,-1.352202 -1.807023,-2.918527 -1.866756,-4.718228 z"
         sodipodi:nodetypes="cccc" />
      <path
         style="fill:none;stroke:#000000;stroke-width:0.264583px;stroke-linecap:butt;stroke-linejoin:miter;stroke-opacity:1"
         d="m 25.724692,14.850163 c 0.888984,1.686774 0.885242,3.59076 0.795128,5.425571"
         id="path1001"
         sodipodi:nodetypes="cc" />
    </g>
    <g
       id="g991"
       transform="rotate(-38.607965,12.708602,21.216878)">
      <path
         id="rect982"
         style="fill:#008000;fill-opacity:1;stroke:#000000;stroke-width:0.264583;stroke-linecap:round;stroke-linejoin:round;stroke-miterlimit:4;stroke-dasharray:none"
         d="m 24.662306,15.734968 c 0.673398,-1.173429 1.458463,-1.258115 2.38125,0 0.667029,1.725202 0.173845,3.239457 -0.514494,4.718228 -1.322292,-1.352202 -1.807023,-2.918527 -1.866756,-4.718228 z"
         sodipodi:nodetypes="cccc" />
      <path
         style="fill:none;stroke:#000000;stroke-width:0.264583px;stroke-linecap:butt;stroke-linejoin:miter;stroke-opacity:1"
         d="m 25.724692,14.850163 c 0.888984,1.686774 0.885242,3.59076 0.795128,5.425571"
         id="path985"
         sodipodi:nodetypes="cc" />
    </g>
    <path
       id="rect966"
       style="fill:#803300;fill-opacity:1;stroke:#000000;stroke-width:0.999999;stroke-linecap:round;stroke-linejoin:round;stroke-miterlimit:4;stroke-dasharray:none"
       d="m 47.730469,15.203125 c -9.371038,-11.4488146 -7.558602,-7.0543734 0,5.480469 l 1.76509,-0.397748 1.902266,-1.767767 2.519891,1.889249 3.71119,0.276266 v 16.214844 c 4.360677,3.667921 8.721355,3.497916 13.082032,0 V 20.683594 h 2.976563 l 2.030869,2.607456 0.591725,-4.434001 4.29928,1.826545 c 10.050744,-19.1556926 2.693217,-8.297123 0,-5.480469 l -3.299441,0.551166 -0.01613,-3.505853 -4.326791,3.52254 -2.304795,-3.390422 -1.849399,4.042458 -17.098324,-1.341208 0.473001,-4.441181 z"
       transform="scale(0.26458333)"
       sodipodi:nodetypes="cccccccccccccccccccccc" />
    <ellipse
       style="fill:#000000;fill-opacity:1;stroke:#000000;stroke-width:0.264583;stroke-linecap:round;stroke-linejoin:round;stroke-miterlimit:4;stroke-dasharray:none"
       id="path973"
       cx="16.229942"
       cy="7.1795273"
       rx="0.44433558"
       ry="0.88867116" />
    <ellipse
       style="fill:#000000;fill-opacity:1;stroke:#000000;stroke-width:0.322219;stroke-linecap:round;stroke-linejoin:round;stroke-miterlimit:4;stroke-dasharray:none"
       id="ellipse975"
       cx="17.609722"
       cy="7.1444483"
       rx="0.41551742"
       ry="1.409426" />
    <g
       id="g1009"
       transform="matrix(-0.89449714,-0.44707367,-0.44707367,0.89449714,44.787201,13.65038)">
      <path
         id="path1005"
         style="fill:#008000;fill-opacity:1;stroke:#000000;stroke-width:0.264583;stroke-linecap:round;stroke-linejoin:round;stroke-miterlimit:4;stroke-dasharray:none"
         d="m 24.662306,15.734968 c 0.673398,-1.173429 1.458463,-1.258115 2.38125,0 0.667029,1.725202 0.173845,3.239457 -0.514494,4.718228 -1.322292,-1.352202 -1.807023,-2.918527 -1.866756,-4.718228 z"
         sodipodi:nodetypes="cccc" />
      <path
         style="fill:none;stroke:#000000;stroke-width:0.264583px;stroke-linecap:butt;stroke-linejoin:miter;stroke-opacity:1"
         d="m 25.724692,14.850163 c 0.888984,1.686774 0.885242,3.59076 0.795128,5.425571"
         id="path1007"
         sodipodi:nodetypes="cc" />
    </g>
    <g
       id="g1015"
       transform="matrix(-0.9958876,-0.09059743,-0.09059743,0.9958876,42.498071,2.8771079)">
      <path
         id="path1011"
         style="fill:#008000;fill-opacity:1;stroke:#000000;stroke-width:0.264583;stroke-linecap:round;stroke-linejoin:round;stroke-miterlimit:4;stroke-dasharray:none"
         d="m 24.662306,15.734968 c 0.673398,-1.173429 1.458463,-1.258115 2.38125,0 0.667029,1.725202 0.173845,3.239457 -0.514494,4.718228 -1.322292,-1.352202 -1.807023,-2.918527 -1.866756,-4.718228 z"
         sodipodi:nodetypes="cccc" />
      <path
         style="fill:none;stroke:#000000;stroke-width:0.264583px;stroke-linecap:butt;stroke-linejoin:miter;stroke-opacity:1"
         d="m 25.724692,14.850163 c 0.888984,1.686774 0.885242,3.59076 0.795128,5.425571"
         id="path1013"
         sodipodi:nodetypes="cc" />
    </g>
    <g
       id="g1027"
       transform="rotate(-1.5725242,27.687493,219.41804)">
      <path
         id="path1023"
         style="fill:#008000;fill-opacity:1;stroke:#000000;stroke-width:0.264583;stroke-linecap:round;stroke-linejoin:round;stroke-miterlimit:4;stroke-dasharray:none"
         d="m 24.662306,15.734968 c 0.673398,-1.173429 1.458463,-1.258115 2.38125,0 0.667029,1.725202 0.173845,3.239457 -0.514494,4.718228 -1.322292,-1.352202 -1.807023,-2.918527 -1.866756,-4.718228 z"
         sodipodi:nodetypes="cccc" />
      <path
         style="fill:none;stroke:#000000;stroke-width:0.264583px;stroke-linecap:butt;stroke-linejoin:miter;stroke-opacity:1"
         d="m 25.724692,14.850163 c 0.888984,1.686774 0.885242,3.59076 0.795128,5.425571"
         id="path1025"
         sodipodi:nodetypes="cc" />
    </g>
    <g
       id="g1021"
       transform="matrix(-0.98031432,0.19744325,0.19744325,0.98031432,40.575073,-4.7368442)">
      <path
         id="path1017"
         style="fill:#008000;fill-opacity:1;stroke:#000000;stroke-width:0.264583;stroke-linecap:round;stroke-linejoin:round;stroke-miterlimit:4;stroke-dasharray:none"
         d="m 24.662306,15.734968 c 0.673398,-1.173429 1.458463,-1.258115 2.38125,0 0.667029,1.725202 0.173845,3.239457 -0.514494,4.718228 -1.322292,-1.352202 -1.807023,-2.918527 -1.866756,-4.718228 z"
         sodipodi:nodetypes="cccc" />
      <path
         style="fill:none;stroke:#000000;stroke-width:0.264583px;stroke-linecap:butt;stroke-linejoin:miter;stroke-opacity:1"
         d="m 25.724692,14.850163 c 0.888984,1.686774 0.885242,3.59076 0.795128,5.425571"
         id="path1019"
         sodipodi:nodetypes="cc" />
    </g>
    <g
       id="g1033"
       transform="matrix(-0.98031432,0.19744325,0.19744325,0.98031432,39.21868,-4.5497555)">
      <path
         id="path1029"
         style="fill:#008000;fill-opacity:1;stroke:#000000;stroke-width:0.264583;stroke-linecap:round;stroke-linejoin:round;stroke-miterlimit:4;stroke-dasharray:none"
         d="m 24.662306,15.734968 c 0.673398,-1.173429 1.458463,-1.258115 2.38125,0 0.667029,1.725202 0.173845,3.239457 -0.514494,4.718228 -1.322292,-1.352202 -1.807023,-2.918527 -1.866756,-4.718228 z"
         sodipodi:nodetypes="cccc" />
      <path
         style="fill:none;stroke:#000000;stroke-width:0.264583px;stroke-linecap:butt;stroke-linejoin:miter;stroke-opacity:1"
         d="m 25.724692,14.850163 c 0.888984,1.686774 0.885242,3.59076 0.795128,5.425571"
         id="path1031"
         sodipodi:nodetypes="cc" />
    </g>
    <path
       id="path1049"
       style="fill:#ffffff;fill-opacity:1;stroke:#000000;stroke-width:0.18282708;stroke-linecap:round;stroke-linejoin:round;stroke-miterlimit:4;stroke-dasharray:none;stroke-opacity:1"
       d="M 17.227348,9.5054177 V 10.923886 L 17.819003,9.5054177 Z"
       sodipodi:nodetypes="cccc" />
    <path
       id="path1051"
       style="fill:#ffffff;fill-opacity:1;stroke:#000000;stroke-width:0.18282708;stroke-linecap:round;stroke-linejoin:round;stroke-miterlimit:4;stroke-dasharray:none;stroke-opacity:1"
       d="M 16.661448,9.5219542 V 10.940423 L 16.069793,9.5219542 Z"
       sodipodi:nodetypes="cccc" />
    <rect
       style="fill:#800080;stroke:none;stroke-width:0.257001;stroke-linecap:round;stroke-linejoin:round"
       id="rect1053"
       width="33.867001"
       height="33.866665"
       x="33.867001"
       y="0.06614583" />
    <path
       id="path1055"
       style="fill:#800000;stroke:#000000;stroke-width:0.264583;stroke-linecap:round;stroke-linejoin:round;stroke-miterlimit:4;stroke-dasharray:none"
       d="m 54.121323,27.053654 c 0,1.83404 -1.486784,3.320824 -3.320825,3.320824 -1.83404,0 -3.320824,-1.486784 -3.320824,-3.320824 0,-1.83404 1.486784,-0.674991 3.320824,-0.674991 1.834041,0 3.320825,-1.159049 3.320825,0.674991 z"
       sodipodi:nodetypes="sssss" />
    <ellipse
       style="fill:#800000;stroke:#000000;stroke-width:0.132292;stroke-linecap:round;stroke-linejoin:round;stroke-miterlimit:4;stroke-dasharray:none"
       id="ellipse1057"
       cx="50.809933"
       cy="26.480726"
       rx="3.1217568"
       ry="1.9293519" />
    <path
       id="path1059"
       style="fill:#552200;stroke:none;stroke-width:0.417424;stroke-linecap:round;stroke-linejoin:round"
       d="m 53.803386,27.057355 c 0,0.873465 -1.228617,1.2914 -2.92349,1.2914 -1.694874,0 -2.93964,-0.337338 -2.939639,-1.210803 0,-0.873465 1.244765,-1.952292 2.939639,-1.952292 1.694873,0 2.92349,0.99823 2.92349,1.871695 z"
       sodipodi:nodetypes="sssss" />
    <ellipse
       style="fill:none;stroke:#000000;stroke-width:0.264583;stroke-linecap:round;stroke-linejoin:round;stroke-miterlimit:4;stroke-dasharray:none"
       id="ellipse1061"
       cx="50.809933"
       cy="26.480726"
       rx="3.1856706"
       ry="1.9271199" />
    <path
       id="path1063"
       style="fill:#803300;stroke:#000000;stroke-width:0.264583;stroke-linecap:round;stroke-linejoin:round;stroke-miterlimit:4;stroke-dasharray:none"
       d="m 49.973676,18.851562 h 1.653645 v 8.268229 c -0.551215,0.695302 -1.10243,0.534988 -1.653645,0 z"
       sodipodi:nodetypes="ccccc" />
    <path
       id="path1065"
       style="fill:#008000;stroke:#000000;stroke-width:0.227099;stroke-linecap:round;stroke-linejoin:round;stroke-miterlimit:4;stroke-dasharray:none"
       d="m 50.82576,15.430344 3.127215,7.380711 c -2.148422,0.699842 -4.296845,0.79812 -6.445267,0 z"
       sodipodi:nodetypes="cccc" />
    <path
       id="path1067"
       style="fill:#803300;fill-opacity:1;stroke:#000000;stroke-width:0.264583;stroke-linecap:round;stroke-linejoin:round;stroke-miterlimit:4;stroke-dasharray:none"
       d="m 54.860427,11.899504 h -3.835318 v 1.917659 h 3.835318 c 2.669739,4.91214 1.118026,1.046345 0,-1.917659 z"
       sodipodi:nodetypes="ccccc" />
    <g
       id="g1201"
       transform="rotate(-7.5939538,-11.154372,-182.24423)">
      <path
         id="path1197"
         style="fill:#008000;fill-opacity:1;stroke:#000000;stroke-width:0.264583;stroke-linecap:round;stroke-linejoin:round;stroke-miterlimit:4;stroke-dasharray:none"
         d="m 24.662306,15.734968 c 0.673398,-1.173429 1.458463,-1.258115 2.38125,0 0.667029,1.725202 0.173845,3.239457 -0.514494,4.718228 -1.322292,-1.352202 -1.807023,-2.918527 -1.866756,-4.718228 z"
         sodipodi:nodetypes="cccc" />
      <path
         style="fill:none;stroke:#000000;stroke-width:0.264583px;stroke-linecap:butt;stroke-linejoin:miter;stroke-opacity:1"
         d="m 25.724692,14.850163 c 0.888984,1.686774 0.885242,3.59076 0.795128,5.425571"
         id="path1199"
         sodipodi:nodetypes="cc" />
    </g>
    <path
       id="path1071"
       style="fill:#008000;stroke:#000000;stroke-width:0.219581;stroke-linecap:round;stroke-linejoin:round;stroke-miterlimit:4;stroke-dasharray:none"
       d="m 49.678971,8.5764578 2.645607,-0.066146 c -0.307368,2.795033 -0.03128,5.832014 1.124479,7.883282 h -5.390658 c 1.37802,-2.181828 1.987049,-5.056825 1.620572,-7.8171362 z"
       sodipodi:nodetypes="ccccc" />
    <g
       id="g1225"
       transform="matrix(-0.99122949,-0.13215179,-0.13215179,0.99122949,78.0194,-3.1716636)">
      <path
         id="path1221"
         style="fill:#008000;fill-opacity:1;stroke:#000000;stroke-width:0.264583;stroke-linecap:round;stroke-linejoin:round;stroke-miterlimit:4;stroke-dasharray:none"
         d="m 24.662306,15.734968 c 0.673398,-1.173429 1.458463,-1.258115 2.38125,0 0.667029,1.725202 0.173845,3.239457 -0.514494,4.718228 -1.322292,-1.352202 -1.807023,-2.918527 -1.866756,-4.718228 z"
         sodipodi:nodetypes="cccc" />
      <path
         style="fill:none;stroke:#000000;stroke-width:0.264583px;stroke-linecap:butt;stroke-linejoin:miter;stroke-opacity:1"
         d="m 25.724692,14.850163 c 0.888984,1.686774 0.885242,3.59076 0.795128,5.425571"
         id="path1223"
         sodipodi:nodetypes="cc" />
    </g>
    <path
       id="path1069"
       style="fill:#803300;fill-opacity:1;stroke:#000000;stroke-width:0.264583;stroke-linecap:round;stroke-linejoin:round;stroke-miterlimit:4;stroke-dasharray:none"
       d="m 47.126908,13.872351 h 3.835318 v -1.917659 h -3.835318 c -2.669737,-4.9121375 -1.118026,-1.046345 0,1.917659 z"
       sodipodi:nodetypes="ccccc" />
    <g
       id="g1101"
       transform="matrix(-0.9958876,-0.09059743,-0.09059743,0.9958876,76.365069,2.9432537)">
      <path
         id="path1097"
         style="fill:#008000;fill-opacity:1;stroke:#000000;stroke-width:0.264583;stroke-linecap:round;stroke-linejoin:round;stroke-miterlimit:4;stroke-dasharray:none"
         d="m 24.662306,15.734968 c 0.673398,-1.173429 1.458463,-1.258115 2.38125,0 0.667029,1.725202 0.173845,3.239457 -0.514494,4.718228 -1.322292,-1.352202 -1.807023,-2.918527 -1.866756,-4.718228 z"
         sodipodi:nodetypes="cccc" />
      <path
         style="fill:none;stroke:#000000;stroke-width:0.264583px;stroke-linecap:butt;stroke-linejoin:miter;stroke-opacity:1"
         d="m 25.724692,14.850163 c 0.888984,1.686774 0.885242,3.59076 0.795128,5.425571"
         id="path1099"
         sodipodi:nodetypes="cc" />
    </g>
    <g
       id="g1113"
       transform="matrix(-0.98031432,0.19744325,0.19744325,0.98031432,74.442072,-4.6706984)">
      <path
         id="path1109"
         style="fill:#008000;fill-opacity:1;stroke:#000000;stroke-width:0.264583;stroke-linecap:round;stroke-linejoin:round;stroke-miterlimit:4;stroke-dasharray:none"
         d="m 24.662306,15.734968 c 0.673398,-1.173429 1.458463,-1.258115 2.38125,0 0.667029,1.725202 0.173845,3.239457 -0.514494,4.718228 -1.322292,-1.352202 -1.807023,-2.918527 -1.866756,-4.718228 z"
         sodipodi:nodetypes="cccc" />
      <path
         style="fill:none;stroke:#000000;stroke-width:0.264583px;stroke-linecap:butt;stroke-linejoin:miter;stroke-opacity:1"
         d="m 25.724692,14.850163 c 0.888984,1.686774 0.885242,3.59076 0.795128,5.425571"
         id="path1111"
         sodipodi:nodetypes="cc" />
    </g>
    <g
       id="g1119"
       transform="matrix(-0.98031432,0.19744325,0.19744325,0.98031432,73.08568,-4.4836097)">
      <path
         id="path1115"
         style="fill:#008000;fill-opacity:1;stroke:#000000;stroke-width:0.264583;stroke-linecap:round;stroke-linejoin:round;stroke-miterlimit:4;stroke-dasharray:none"
         d="m 24.662306,15.734968 c 0.673398,-1.173429 1.458463,-1.258115 2.38125,0 0.667029,1.725202 0.173845,3.239457 -0.514494,4.718228 -1.322292,-1.352202 -1.807023,-2.918527 -1.866756,-4.718228 z"
         sodipodi:nodetypes="cccc" />
      <path
         style="fill:none;stroke:#000000;stroke-width:0.264583px;stroke-linecap:butt;stroke-linejoin:miter;stroke-opacity:1"
         d="m 25.724692,14.850163 c 0.888984,1.686774 0.885242,3.59076 0.795128,5.425571"
         id="path1117"
         sodipodi:nodetypes="cc" />
    </g>
    <rect
       style="fill:#800080;stroke:none;stroke-width:0.257001;stroke-linecap:round;stroke-linejoin:round"
       id="rect1125"
       width="33.867001"
       height="33.866665"
       x="67.734001"
       y="0.06614583" />
    <path
       id="path1127"
       style="fill:#800000;stroke:#000000;stroke-width:0.264583;stroke-linecap:round;stroke-linejoin:round;stroke-miterlimit:4;stroke-dasharray:none"
       d="m 87.988324,27.053654 c 0,1.83404 -1.486784,3.320824 -3.320825,3.320824 -1.83404,0 -3.320824,-1.486784 -3.320824,-3.320824 0,-1.83404 1.486784,-0.674991 3.320824,-0.674991 1.834041,0 3.320825,-1.159049 3.320825,0.674991 z"
       sodipodi:nodetypes="sssss" />
    <ellipse
       style="fill:#800000;stroke:#000000;stroke-width:0.132292;stroke-linecap:round;stroke-linejoin:round;stroke-miterlimit:4;stroke-dasharray:none"
       id="ellipse1129"
       cx="84.676933"
       cy="26.480726"
       rx="3.1217568"
       ry="1.9293519" />
    <path
       id="path1131"
       style="fill:#552200;stroke:none;stroke-width:0.417424;stroke-linecap:round;stroke-linejoin:round"
       d="m 87.670387,27.057355 c 0,0.873465 -1.228617,1.2914 -2.92349,1.2914 -1.694874,0 -2.93964,-0.337338 -2.939639,-1.210803 0,-0.873465 1.244765,-1.952292 2.939639,-1.952292 1.694873,0 2.92349,0.99823 2.92349,1.871695 z"
       sodipodi:nodetypes="sssss" />
    <ellipse
       style="fill:none;stroke:#000000;stroke-width:0.264583;stroke-linecap:round;stroke-linejoin:round;stroke-miterlimit:4;stroke-dasharray:none"
       id="ellipse1133"
       cx="84.676933"
       cy="26.480726"
       rx="3.1856706"
       ry="1.9271199" />
    <path
       id="path1135"
       style="fill:#803300;stroke:#000000;stroke-width:0.264583;stroke-linecap:round;stroke-linejoin:round;stroke-miterlimit:4;stroke-dasharray:none"
       d="m 83.840677,18.851562 h 1.653645 v 8.268229 c -0.551215,0.695302 -1.10243,0.534988 -1.653645,0 z"
       sodipodi:nodetypes="ccccc" />
    <path
       id="path1137"
       style="fill:#008000;stroke:#000000;stroke-width:0.264583;stroke-linecap:round;stroke-linejoin:round;stroke-miterlimit:4;stroke-dasharray:none"
       d="m 84.797678,15.449085 4.266406,7.343229 c -2.881716,0.986789 -5.823535,0.771517 -8.793167,0 z"
       sodipodi:nodetypes="cccc" />
    <path
       id="path1139"
       style="fill:#803300;fill-opacity:1;stroke:#000000;stroke-width:0.264583;stroke-linecap:round;stroke-linejoin:round;stroke-miterlimit:4;stroke-dasharray:none"
       d="m 78.234352,13.077225 h 3.835318 v -1.917659 h -3.835318 c -2.669739,-4.9121396 -1.118026,-1.046345 0,1.917659 z"
       sodipodi:nodetypes="ccccc" />
    <path
       id="path1141"
       style="fill:#803300;fill-opacity:1;stroke:#000000;stroke-width:0.264583;stroke-linecap:round;stroke-linejoin:round;stroke-miterlimit:4;stroke-dasharray:none"
       d="m 91.533759,11.244694 h -3.835318 v 1.917659 h 3.835318 c 2.669737,4.912138 1.118026,1.046345 0,-1.917659 z"
       sodipodi:nodetypes="ccccc" />
    <path
       id="path1143"
       style="fill:#008000;stroke:#000000;stroke-width:0.264583;stroke-linecap:round;stroke-linejoin:round;stroke-miterlimit:4;stroke-dasharray:none"
       d="m 80.731823,8.4997396 h 7.871355 c -0.448814,2.7791434 -1.687621,5.8317464 0,7.8713534 h -7.871354 c 2.012163,-2.169424 0.535123,-5.126734 -10e-7,-7.8713534 z"
       sodipodi:nodetypes="ccccc" />
    <g
       id="g1149"
       transform="matrix(-0.78143374,-0.62398823,-0.62398823,0.78143374,112.051,12.586686)">
      <path
         id="path1145"
         style="fill:#008000;fill-opacity:1;stroke:#000000;stroke-width:0.264583;stroke-linecap:round;stroke-linejoin:round;stroke-miterlimit:4;stroke-dasharray:none"
         d="m 24.662306,15.734968 c 0.673398,-1.173429 1.458463,-1.258115 2.38125,0 0.667029,1.725202 0.173845,3.239457 -0.514494,4.718228 -1.322292,-1.352202 -1.807023,-2.918527 -1.866756,-4.718228 z"
         sodipodi:nodetypes="cccc" />
      <path
         style="fill:none;stroke:#000000;stroke-width:0.264583px;stroke-linecap:butt;stroke-linejoin:miter;stroke-opacity:1"
         d="m 25.724692,14.850163 c 0.888984,1.686774 0.885242,3.59076 0.795128,5.425571"
         id="path1147"
         sodipodi:nodetypes="cc" />
    </g>
    <g
       id="g1155"
       transform="rotate(-38.607965,46.670022,-75.437476)">
      <path
         id="path1151"
         style="fill:#008000;fill-opacity:1;stroke:#000000;stroke-width:0.264583;stroke-linecap:round;stroke-linejoin:round;stroke-miterlimit:4;stroke-dasharray:none"
         d="m 24.662306,15.734968 c 0.673398,-1.173429 1.458463,-1.258115 2.38125,0 0.667029,1.725202 0.173845,3.239457 -0.514494,4.718228 -1.322292,-1.352202 -1.807023,-2.918527 -1.866756,-4.718228 z"
         sodipodi:nodetypes="cccc" />
      <path
         style="fill:none;stroke:#000000;stroke-width:0.264583px;stroke-linecap:butt;stroke-linejoin:miter;stroke-opacity:1"
         d="m 25.724692,14.850163 c 0.888984,1.686774 0.885242,3.59076 0.795128,5.425571"
         id="path1153"
         sodipodi:nodetypes="cc" />
    </g>
    <path
       id="path1157"
       style="fill:#803300;fill-opacity:1;stroke:#000000;stroke-width:0.264583;stroke-linecap:round;stroke-linejoin:round;stroke-miterlimit:4;stroke-dasharray:none"
       d="m 80.362686,4.0886392 c -2.479421,-3.0291654 -1.99988,-1.8664696 0,1.4500408 l 0.467013,-0.1052375 0.503308,-0.4677217 0.666721,0.4998638 0.981919,0.073095 V 9.828857 c 1.153763,0.970471 2.307525,0.925491 3.461288,0 V 5.53868 h 0.787549 l 0.537334,0.6898894 0.15656,-1.1731628 1.137518,0.4832734 c 2.659261,-5.06827693 0.712581,-2.1952805 0,-1.4500408 l -0.872977,0.1458294 -0.0043,-0.9275903 -1.144796,0.9320054 -0.609811,-0.8970492 -0.48932,1.069567 -4.52393,-0.3548612 0.125149,-1.1750625 z"
       sodipodi:nodetypes="cccccccccccccccccccccc" />
    <g
       id="g1167"
       transform="matrix(-0.89449714,-0.44707367,-0.44707367,0.89449714,112.5212,13.716525)">
      <path
         id="path1163"
         style="fill:#008000;fill-opacity:1;stroke:#000000;stroke-width:0.264583;stroke-linecap:round;stroke-linejoin:round;stroke-miterlimit:4;stroke-dasharray:none"
         d="m 24.662306,15.734968 c 0.673398,-1.173429 1.458463,-1.258115 2.38125,0 0.667029,1.725202 0.173845,3.239457 -0.514494,4.718228 -1.322292,-1.352202 -1.807023,-2.918527 -1.866756,-4.718228 z"
         sodipodi:nodetypes="cccc" />
      <path
         style="fill:none;stroke:#000000;stroke-width:0.264583px;stroke-linecap:butt;stroke-linejoin:miter;stroke-opacity:1"
         d="m 25.724692,14.850163 c 0.888984,1.686774 0.885242,3.59076 0.795128,5.425571"
         id="path1165"
         sodipodi:nodetypes="cc" />
    </g>
    <g
       id="g1173"
       transform="matrix(-0.9958876,-0.09059743,-0.09059743,0.9958876,110.23207,2.9432537)">
      <path
         id="path1169"
         style="fill:#008000;fill-opacity:1;stroke:#000000;stroke-width:0.264583;stroke-linecap:round;stroke-linejoin:round;stroke-miterlimit:4;stroke-dasharray:none"
         d="m 24.662306,15.734968 c 0.673398,-1.173429 1.458463,-1.258115 2.38125,0 0.667029,1.725202 0.173845,3.239457 -0.514494,4.718228 -1.322292,-1.352202 -1.807023,-2.918527 -1.866756,-4.718228 z"
         sodipodi:nodetypes="cccc" />
      <path
         style="fill:none;stroke:#000000;stroke-width:0.264583px;stroke-linecap:butt;stroke-linejoin:miter;stroke-opacity:1"
         d="m 25.724692,14.850163 c 0.888984,1.686774 0.885242,3.59076 0.795128,5.425571"
         id="path1171"
         sodipodi:nodetypes="cc" />
    </g>
    <g
       id="g1179"
       transform="rotate(-1.5725242,63.964401,-2248.3193)">
      <path
         id="path1175"
         style="fill:#008000;fill-opacity:1;stroke:#000000;stroke-width:0.264583;stroke-linecap:round;stroke-linejoin:round;stroke-miterlimit:4;stroke-dasharray:none"
         d="m 24.662306,15.734968 c 0.673398,-1.173429 1.458463,-1.258115 2.38125,0 0.667029,1.725202 0.173845,3.239457 -0.514494,4.718228 -1.322292,-1.352202 -1.807023,-2.918527 -1.866756,-4.718228 z"
         sodipodi:nodetypes="cccc" />
      <path
         style="fill:none;stroke:#000000;stroke-width:0.264583px;stroke-linecap:butt;stroke-linejoin:miter;stroke-opacity:1"
         d="m 25.724692,14.850163 c 0.888984,1.686774 0.885242,3.59076 0.795128,5.425571"
         id="path1177"
         sodipodi:nodetypes="cc" />
    </g>
    <g
       id="g1185"
       transform="matrix(-0.98031432,0.19744325,0.19744325,0.98031432,108.30907,-4.6706984)">
      <path
         id="path1181"
         style="fill:#008000;fill-opacity:1;stroke:#000000;stroke-width:0.264583;stroke-linecap:round;stroke-linejoin:round;stroke-miterlimit:4;stroke-dasharray:none"
         d="m 24.662306,15.734968 c 0.673398,-1.173429 1.458463,-1.258115 2.38125,0 0.667029,1.725202 0.173845,3.239457 -0.514494,4.718228 -1.322292,-1.352202 -1.807023,-2.918527 -1.866756,-4.718228 z"
         sodipodi:nodetypes="cccc" />
      <path
         style="fill:none;stroke:#000000;stroke-width:0.264583px;stroke-linecap:butt;stroke-linejoin:miter;stroke-opacity:1"
         d="m 25.724692,14.850163 c 0.888984,1.686774 0.885242,3.59076 0.795128,5.425571"
         id="path1183"
         sodipodi:nodetypes="cc" />
    </g>
    <g
       id="g1191"
       transform="matrix(-0.98031432,0.19744325,0.19744325,0.98031432,106.95268,-4.4836097)">
      <path
         id="path1187"
         style="fill:#008000;fill-opacity:1;stroke:#000000;stroke-width:0.264583;stroke-linecap:round;stroke-linejoin:round;stroke-miterlimit:4;stroke-dasharray:none"
         d="m 24.662306,15.734968 c 0.673398,-1.173429 1.458463,-1.258115 2.38125,0 0.667029,1.725202 0.173845,3.239457 -0.514494,4.718228 -1.322292,-1.352202 -1.807023,-2.918527 -1.866756,-4.718228 z"
         sodipodi:nodetypes="cccc" />
      <path
         style="fill:none;stroke:#000000;stroke-width:0.264583px;stroke-linecap:butt;stroke-linejoin:miter;stroke-opacity:1"
         d="m 25.724692,14.850163 c 0.888984,1.686774 0.885242,3.59076 0.795128,5.425571"
         id="path1189"
         sodipodi:nodetypes="cc" />
    </g>
    <path
       id="rect1203"
       style="fill:#803300;fill-opacity:1;stroke:#000000;stroke-width:0.264583;stroke-linecap:round;stroke-linejoin:round;stroke-miterlimit:4;stroke-dasharray:none;stroke-opacity:1"
       d="m 49.812359,4.3498116 h 2.291836 c 0.271585,1.574663 0.343975,3.149326 0,4.723989 h -2.291836 c -0.239538,-1.494817 -0.153224,-3.0982514 0,-4.723989 z"
       sodipodi:nodetypes="ccccc" />
    <ellipse
       style="fill:#000000;fill-opacity:1;stroke:#000000;stroke-width:0.264583;stroke-linecap:round;stroke-linejoin:round;stroke-miterlimit:4;stroke-dasharray:none;stroke-opacity:1"
       id="path1205"
       cx="50.116375"
       cy="6.1973119"
       rx="0.30401909"
       ry="1.3330069" />
    <path
       id="rect1207"
       style="fill:#ffffff;fill-opacity:1;stroke:#000000;stroke-width:0.264583;stroke-linecap:round;stroke-linejoin:round;stroke-miterlimit:4;stroke-dasharray:none;stroke-opacity:1"
       d="m 49.674876,8.1657554 h 0.795127 l -0.795127,1.6370258 z"
       sodipodi:nodetypes="cccc" />
    <path
       id="rect1210"
       style="fill:#803300;fill-opacity:1;stroke:#000000;stroke-width:0.920271;stroke-linecap:round;stroke-linejoin:round;stroke-miterlimit:4;stroke-dasharray:none;stroke-opacity:1"
       d="M 193.53711 4.7792969 L 192.93164 8.6308594 L 190.05469 5.9257812 L 188.29883 7.7929688 L 192.22461 11.486328 L 192.53516 11.15625 L 191.53711 17.511719 L 196.25977 19.103516 L 196.80273 15.644531 L 202.05664 15.644531 L 202.05664 12.638672 L 197.27539 12.638672 L 198.25977 6.3730469 L 193.53711 4.7792969 z "
       transform="scale(0.26458333)" />
  </g>
  <g
     inkscape:groupmode="layer"
     id="layer2"
     inkscape:label="Layer 2" />
</svg>
