<?xml version="1.0" encoding="UTF-8" standalone="no"?>
<svg
   xmlns:dc="http://purl.org/dc/elements/1.1/"
   xmlns:cc="http://creativecommons.org/ns#"
   xmlns:rdf="http://www.w3.org/1999/02/22-rdf-syntax-ns#"
   xmlns:svg="http://www.w3.org/2000/svg"
   xmlns="http://www.w3.org/2000/svg"
   xmlns:sodipodi="http://sodipodi.sourceforge.net/DTD/sodipodi-0.dtd"
   xmlns:inkscape="http://www.inkscape.org/namespaces/inkscape"
   width="210mm"
   height="297mm"
   viewBox="0 0 210 297"
   version="1.1"
   id="svg8"
   inkscape:version="1.0.1 (3bc2e813f5, 2020-09-07)"
   sodipodi:docname="leszy.svg">
  <defs
     id="defs2">
    <inkscape:path-effect
       effect="spiro"
       id="path-effect987"
       is_visible="true"
       lpeversion="1" />
  </defs>
  <sodipodi:namedview
     id="base"
     pagecolor="#ffffff"
     bordercolor="#666666"
     borderopacity="1.0"
     inkscape:pageopacity="0.0"
     inkscape:pageshadow="2"
     inkscape:zoom="1.4142136"
     inkscape:cx="512.93518"
     inkscape:cy="154.37147"
     inkscape:document-units="mm"
     inkscape:current-layer="layer1"
     inkscape:document-rotation="0"
     showgrid="false"
     inkscape:window-width="1920"
     inkscape:window-height="1017"
     inkscape:window-x="-8"
     inkscape:window-y="-8"
     inkscape:window-maximized="1"
     inkscape:snap-grids="true"
     inkscape:snap-to-guides="false"
     inkscape:snap-others="true"
     inkscape:object-nodes="true"
     inkscape:snap-nodes="true"
     inkscape:snap-page="true"
     inkscape:snap-object-midpoints="true"
     inkscape:snap-center="true"
     inkscape:snap-bbox="false"
     inkscape:bbox-nodes="true"
     inkscape:bbox-paths="true"
     inkscape:snap-bbox-edge-midpoints="true"
     inkscape:snap-bbox-midpoints="true"
     inkscape:object-paths="true"
     inkscape:snap-intersection-paths="true"
     inkscape:snap-smooth-nodes="true"
     inkscape:snap-midpoints="true"
     inkscape:snap-global="false" />
  <metadata
     id="metadata5">
    <rdf:RDF>
      <cc:Work
         rdf:about="">
        <dc:format>image/svg+xml</dc:format>
        <dc:type
           rdf:resource="http://purl.org/dc/dcmitype/StillImage" />
        <dc:title />
      </cc:Work>
    </rdf:RDF>
  </metadata>
  <g
     inkscape:label="Layer 1"
     inkscape:groupmode="layer"
     id="layer1"
     style="display:inline">
    <rect
       style="fill:#800080;stroke:none;stroke-width:0.514002;stroke-linecap:round;stroke-linejoin:round;opacity:0"
       id="rect835"
       width="67.734001"
       height="67.73333"
       x="0"
       y="0"
       inkscape:export-filename="E:\STEELJAM\SteelworksJam2\Assets\Sprites\Enemies\leszy_forward_sprite.png"
       inkscape:export-xdpi="96"
       inkscape:export-ydpi="96" />
    <path
       id="path117"
       style="fill:#800000;stroke:#000000;stroke-width:0.529167;stroke-linecap:round;stroke-linejoin:round;stroke-miterlimit:4;stroke-dasharray:none"
       d="m 40.50865,53.975021 c 0,3.66808 -2.973568,6.641648 -6.641648,6.641648 -3.66808,0 -6.641649,-2.973568 -6.641649,-6.641648 0,-3.66808 2.973569,-1.349982 6.641649,-1.349982 3.66808,0 6.641648,-2.318098 6.641648,1.349982 z"
       sodipodi:nodetypes="sssss"
       inkscape:export-filename="E:\STEELJAM\SteelworksJam2\Assets\Sprites\Enemies\leszy_forward_sprite.png"
       inkscape:export-xdpi="96"
       inkscape:export-ydpi="96" />
    <ellipse
       style="fill:#800000;stroke:#000000;stroke-width:0.264583;stroke-linecap:round;stroke-linejoin:round;stroke-miterlimit:4;stroke-dasharray:none"
       id="path120"
       cx="33.885864"
       cy="52.829166"
       rx="6.2435141"
       ry="3.8587041"
       inkscape:export-filename="E:\STEELJAM\SteelworksJam2\Assets\Sprites\Enemies\leszy_forward_sprite.png"
       inkscape:export-xdpi="96"
       inkscape:export-ydpi="96" />
    <path
       id="ellipse126"
       style="fill:#552200;stroke:none;stroke-width:0.834848;stroke-linecap:round;stroke-linejoin:round"
       d="m 39.872778,53.982421 c 0,1.74693 -2.457234,2.5828 -5.846982,2.5828 -3.389746,0 -5.879281,-0.674676 -5.879279,-2.421606 0,-1.74693 2.489533,-3.904584 5.879279,-3.904584 3.389746,0 5.84698,1.99646 5.846982,3.74339 z"
       sodipodi:nodetypes="sssss"
       inkscape:export-filename="E:\STEELJAM\SteelworksJam2\Assets\Sprites\Enemies\leszy_forward_sprite.png"
       inkscape:export-xdpi="96"
       inkscape:export-ydpi="96" />
    <ellipse
       style="fill:none;stroke:#000000;stroke-width:0.529167;stroke-linecap:round;stroke-linejoin:round;stroke-miterlimit:4;stroke-dasharray:none"
       id="ellipse128"
       cx="33.885864"
       cy="52.829166"
       rx="6.3713417"
       ry="3.8542399"
       inkscape:export-filename="E:\STEELJAM\SteelworksJam2\Assets\Sprites\Enemies\leszy_forward_sprite.png"
       inkscape:export-xdpi="96"
       inkscape:export-ydpi="96" />
    <path
       id="rect131"
       style="fill:#803300;stroke:#000000;stroke-width:0.529167;stroke-linecap:round;stroke-linejoin:round;stroke-miterlimit:4;stroke-dasharray:none"
       d="m 32.213358,37.570836 h 3.30729 v 16.536459 c -1.10243,1.390602 -2.20486,1.069974 -3.30729,0 z"
       sodipodi:nodetypes="ccccc"
       inkscape:export-filename="E:\STEELJAM\SteelworksJam2\Assets\Sprites\Enemies\leszy_forward_sprite.png"
       inkscape:export-xdpi="96"
       inkscape:export-ydpi="96" />
    <path
       id="rect957"
       style="fill:#008000;stroke:#000000;stroke-width:0.529166;stroke-linecap:round;stroke-linejoin:round;stroke-miterlimit:4;stroke-dasharray:none"
       d="m 34.12736,30.76588 8.532812,14.68646 c -5.862112,1.705526 -11.724224,1.465682 -17.586337,0 z"
       sodipodi:nodetypes="cccc"
       inkscape:export-filename="E:\STEELJAM\SteelworksJam2\Assets\Sprites\Enemies\leszy_forward_sprite.png"
       inkscape:export-xdpi="96"
       inkscape:export-ydpi="96" />
    <path
       id="path980"
       style="fill:#803300;fill-opacity:1;stroke:#000000;stroke-width:0.529166;stroke-linecap:round;stroke-linejoin:round;stroke-miterlimit:4;stroke-dasharray:none"
       d="m 47.599519,26.022159 h -7.670637 v -3.835318 h 7.670637 c 5.339476,-9.824279 2.236054,-2.09269 0,3.835318 z"
       sodipodi:nodetypes="ccccc"
       inkscape:export-filename="E:\STEELJAM\SteelworksJam2\Assets\Sprites\Enemies\leszy_forward_sprite.png"
       inkscape:export-xdpi="96"
       inkscape:export-ydpi="96" />
    <path
       id="rect964"
       style="fill:#803300;fill-opacity:1;stroke:#000000;stroke-width:0.529166;stroke-linecap:round;stroke-linejoin:round;stroke-miterlimit:4;stroke-dasharray:none"
       d="m 21.000705,22.357097 h 7.670637 v 3.835318 h -7.670637 c -5.339475,9.824279 -2.236053,2.09269 0,-3.835318 z"
       sodipodi:nodetypes="ccccc"
       inkscape:export-filename="E:\STEELJAM\SteelworksJam2\Assets\Sprites\Enemies\leszy_forward_sprite.png"
       inkscape:export-xdpi="96"
       inkscape:export-ydpi="96" />
    <path
       id="rect962"
       style="fill:#008000;stroke:#000000;stroke-width:0.529166;stroke-linecap:round;stroke-linejoin:round;stroke-miterlimit:4;stroke-dasharray:none"
       d="m 25.995647,16.867188 h 15.742709 c -0.897626,5.558287 -3.375242,11.663493 0,15.74271 H 25.995647 c 4.024327,-4.338851 1.070246,-10.253471 0,-15.74271 z"
       sodipodi:nodetypes="ccccc"
       inkscape:export-filename="E:\STEELJAM\SteelworksJam2\Assets\Sprites\Enemies\leszy_forward_sprite.png"
       inkscape:export-xdpi="96"
       inkscape:export-ydpi="96" />
    <g
       id="g1003"
       transform="matrix(-1.5628676,-1.2479765,-1.2479765,1.5628676,88.634005,25.041081)"
       inkscape:export-filename="E:\STEELJAM\SteelworksJam2\Assets\Sprites\Enemies\leszy_forward_sprite.png"
       inkscape:export-xdpi="96"
       inkscape:export-ydpi="96">
      <path
         id="path999"
         style="fill:#008000;fill-opacity:1;stroke:#000000;stroke-width:0.264583;stroke-linecap:round;stroke-linejoin:round;stroke-miterlimit:4;stroke-dasharray:none"
         d="m 24.662306,15.734968 c 0.673398,-1.173429 1.458463,-1.258115 2.38125,0 0.667029,1.725202 0.173845,3.239457 -0.514494,4.718228 -1.322292,-1.352202 -1.807023,-2.918527 -1.866756,-4.718228 z"
         sodipodi:nodetypes="cccc" />
      <path
         style="fill:none;stroke:#000000;stroke-width:0.264583px;stroke-linecap:butt;stroke-linejoin:miter;stroke-opacity:1"
         d="m 25.724692,14.850163 c 0.888984,1.686774 0.885242,3.59076 0.795128,5.425571"
         id="path1001"
         sodipodi:nodetypes="cc" />
    </g>
    <g
       id="g991"
       transform="matrix(1.5628676,-1.2479765,1.2479765,1.5628676,-20.922822,25.134625)"
       inkscape:export-filename="E:\STEELJAM\SteelworksJam2\Assets\Sprites\Enemies\leszy_forward_sprite.png"
       inkscape:export-xdpi="96"
       inkscape:export-ydpi="96">
      <path
         id="rect982"
         style="fill:#008000;fill-opacity:1;stroke:#000000;stroke-width:0.264583;stroke-linecap:round;stroke-linejoin:round;stroke-miterlimit:4;stroke-dasharray:none"
         d="m 24.662306,15.734968 c 0.673398,-1.173429 1.458463,-1.258115 2.38125,0 0.667029,1.725202 0.173845,3.239457 -0.514494,4.718228 -1.322292,-1.352202 -1.807023,-2.918527 -1.866756,-4.718228 z"
         sodipodi:nodetypes="cccc" />
      <path
         style="fill:none;stroke:#000000;stroke-width:0.264583px;stroke-linecap:butt;stroke-linejoin:miter;stroke-opacity:1"
         d="m 25.724692,14.850163 c 0.888984,1.686774 0.885242,3.59076 0.795128,5.425571"
         id="path985"
         sodipodi:nodetypes="cc" />
    </g>
    <path
       id="rect966"
       style="fill:#803300;fill-opacity:1;stroke:#000000;stroke-width:0.529166;stroke-linecap:round;stroke-linejoin:round;stroke-miterlimit:4;stroke-dasharray:none"
       d="m 25.257374,8.0449873 c -4.958841,-6.0583313 -3.99976,-3.7329394 0,2.9000817 l 0.934027,-0.210475 1.006616,-0.9354435 1.333442,0.9997275 1.963838,0.146191 v 8.580355 c 2.307525,1.940942 4.615051,1.850981 6.922576,0 v -8.580355 h 1.575098 l 1.074668,1.379779 0.313121,-2.3463258 2.275036,0.9665468 c 5.318519,-10.13655448 1.425161,-4.3905612 0,-2.9000817 L 40.909842,8.336646 40.901342,6.4814654 38.611749,8.3454762 37.392128,6.5513778 36.413488,8.6905119 27.365624,7.9807893 27.61592,5.6306643 Z"
       sodipodi:nodetypes="cccccccccccccccccccccc"
       inkscape:export-filename="E:\STEELJAM\SteelworksJam2\Assets\Sprites\Enemies\leszy_forward_sprite.png"
       inkscape:export-xdpi="96"
       inkscape:export-ydpi="96" />
    <ellipse
       style="fill:#000000;fill-opacity:1;stroke:#000000;stroke-width:0.529166;stroke-linecap:round;stroke-linejoin:round;stroke-miterlimit:4;stroke-dasharray:none"
       id="path973"
       cx="32.459885"
       cy="14.359056"
       rx="0.88867122"
       ry="1.7773424"
       inkscape:export-filename="E:\STEELJAM\SteelworksJam2\Assets\Sprites\Enemies\leszy_forward_sprite.png"
       inkscape:export-xdpi="96"
       inkscape:export-ydpi="96" />
    <ellipse
       style="fill:#000000;fill-opacity:1;stroke:#000000;stroke-width:0.644438;stroke-linecap:round;stroke-linejoin:round;stroke-miterlimit:4;stroke-dasharray:none"
       id="ellipse975"
       cx="35.219444"
       cy="14.288898"
       rx="0.8310349"
       ry="2.8188522"
       inkscape:export-filename="E:\STEELJAM\SteelworksJam2\Assets\Sprites\Enemies\leszy_forward_sprite.png"
       inkscape:export-xdpi="96"
       inkscape:export-ydpi="96" />
    <g
       id="g1009"
       transform="matrix(-1.7889944,-0.89414739,-0.89414739,1.7889944,89.574407,27.300761)"
       inkscape:export-filename="E:\STEELJAM\SteelworksJam2\Assets\Sprites\Enemies\leszy_forward_sprite.png"
       inkscape:export-xdpi="96"
       inkscape:export-ydpi="96">
      <path
         id="path1005"
         style="fill:#008000;fill-opacity:1;stroke:#000000;stroke-width:0.264583;stroke-linecap:round;stroke-linejoin:round;stroke-miterlimit:4;stroke-dasharray:none"
         d="m 24.662306,15.734968 c 0.673398,-1.173429 1.458463,-1.258115 2.38125,0 0.667029,1.725202 0.173845,3.239457 -0.514494,4.718228 -1.322292,-1.352202 -1.807023,-2.918527 -1.866756,-4.718228 z"
         sodipodi:nodetypes="cccc" />
      <path
         style="fill:none;stroke:#000000;stroke-width:0.264583px;stroke-linecap:butt;stroke-linejoin:miter;stroke-opacity:1"
         d="m 25.724692,14.850163 c 0.888984,1.686774 0.885242,3.59076 0.795128,5.425571"
         id="path1007"
         sodipodi:nodetypes="cc" />
    </g>
    <g
       id="g1015"
       transform="matrix(-1.9917753,-0.18119487,-0.18119487,1.9917753,84.996146,5.7542161)"
       inkscape:export-filename="E:\STEELJAM\SteelworksJam2\Assets\Sprites\Enemies\leszy_forward_sprite.png"
       inkscape:export-xdpi="96"
       inkscape:export-ydpi="96">
      <path
         id="path1011"
         style="fill:#008000;fill-opacity:1;stroke:#000000;stroke-width:0.264583;stroke-linecap:round;stroke-linejoin:round;stroke-miterlimit:4;stroke-dasharray:none"
         d="m 24.662306,15.734968 c 0.673398,-1.173429 1.458463,-1.258115 2.38125,0 0.667029,1.725202 0.173845,3.239457 -0.514494,4.718228 -1.322292,-1.352202 -1.807023,-2.918527 -1.866756,-4.718228 z"
         sodipodi:nodetypes="cccc" />
      <path
         style="fill:none;stroke:#000000;stroke-width:0.264583px;stroke-linecap:butt;stroke-linejoin:miter;stroke-opacity:1"
         d="m 25.724692,14.850163 c 0.888984,1.686774 0.885242,3.59076 0.795128,5.425571"
         id="path1013"
         sodipodi:nodetypes="cc" />
    </g>
    <g
       id="g1027"
       transform="matrix(1.9992469,-0.05488456,0.05488456,1.9992469,-12.021808,1.6848861)"
       inkscape:export-filename="E:\STEELJAM\SteelworksJam2\Assets\Sprites\Enemies\leszy_forward_sprite.png"
       inkscape:export-xdpi="96"
       inkscape:export-ydpi="96">
      <path
         id="path1023"
         style="fill:#008000;fill-opacity:1;stroke:#000000;stroke-width:0.264583;stroke-linecap:round;stroke-linejoin:round;stroke-miterlimit:4;stroke-dasharray:none"
         d="m 24.662306,15.734968 c 0.673398,-1.173429 1.458463,-1.258115 2.38125,0 0.667029,1.725202 0.173845,3.239457 -0.514494,4.718228 -1.322292,-1.352202 -1.807023,-2.918527 -1.866756,-4.718228 z"
         sodipodi:nodetypes="cccc" />
      <path
         style="fill:none;stroke:#000000;stroke-width:0.264583px;stroke-linecap:butt;stroke-linejoin:miter;stroke-opacity:1"
         d="m 25.724692,14.850163 c 0.888984,1.686774 0.885242,3.59076 0.795128,5.425571"
         id="path1025"
         sodipodi:nodetypes="cc" />
    </g>
    <g
       id="g1021"
       transform="matrix(-1.9606287,0.39488652,0.39488652,1.9606287,81.15015,-9.4736889)"
       inkscape:export-filename="E:\STEELJAM\SteelworksJam2\Assets\Sprites\Enemies\leszy_forward_sprite.png"
       inkscape:export-xdpi="96"
       inkscape:export-ydpi="96">
      <path
         id="path1017"
         style="fill:#008000;fill-opacity:1;stroke:#000000;stroke-width:0.264583;stroke-linecap:round;stroke-linejoin:round;stroke-miterlimit:4;stroke-dasharray:none"
         d="m 24.662306,15.734968 c 0.673398,-1.173429 1.458463,-1.258115 2.38125,0 0.667029,1.725202 0.173845,3.239457 -0.514494,4.718228 -1.322292,-1.352202 -1.807023,-2.918527 -1.866756,-4.718228 z"
         sodipodi:nodetypes="cccc" />
      <path
         style="fill:none;stroke:#000000;stroke-width:0.264583px;stroke-linecap:butt;stroke-linejoin:miter;stroke-opacity:1"
         d="m 25.724692,14.850163 c 0.888984,1.686774 0.885242,3.59076 0.795128,5.425571"
         id="path1019"
         sodipodi:nodetypes="cc" />
    </g>
    <g
       id="g1033"
       transform="matrix(-1.9606287,0.39488652,0.39488652,1.9606287,78.437364,-9.0995115)"
       inkscape:export-filename="E:\STEELJAM\SteelworksJam2\Assets\Sprites\Enemies\leszy_forward_sprite.png"
       inkscape:export-xdpi="96"
       inkscape:export-ydpi="96">
      <path
         id="path1029"
         style="fill:#008000;fill-opacity:1;stroke:#000000;stroke-width:0.264583;stroke-linecap:round;stroke-linejoin:round;stroke-miterlimit:4;stroke-dasharray:none"
         d="m 24.662306,15.734968 c 0.673398,-1.173429 1.458463,-1.258115 2.38125,0 0.667029,1.725202 0.173845,3.239457 -0.514494,4.718228 -1.322292,-1.352202 -1.807023,-2.918527 -1.866756,-4.718228 z"
         sodipodi:nodetypes="cccc" />
      <path
         style="fill:none;stroke:#000000;stroke-width:0.264583px;stroke-linecap:butt;stroke-linejoin:miter;stroke-opacity:1"
         d="m 25.724692,14.850163 c 0.888984,1.686774 0.885242,3.59076 0.795128,5.425571"
         id="path1031"
         sodipodi:nodetypes="cc" />
    </g>
    <path
       id="path1049"
       style="fill:#ffffff;fill-opacity:1;stroke:#000000;stroke-width:0.365654;stroke-linecap:round;stroke-linejoin:round;stroke-miterlimit:4;stroke-dasharray:none;stroke-opacity:1"
       d="m 34.454698,19.010836 v 2.836937 l 1.18331,-2.836937 z"
       sodipodi:nodetypes="cccc"
       inkscape:export-filename="E:\STEELJAM\SteelworksJam2\Assets\Sprites\Enemies\leszy_forward_sprite.png"
       inkscape:export-xdpi="96"
       inkscape:export-ydpi="96" />
    <path
       id="path1051"
       style="fill:#ffffff;fill-opacity:1;stroke:#000000;stroke-width:0.365654;stroke-linecap:round;stroke-linejoin:round;stroke-miterlimit:4;stroke-dasharray:none;stroke-opacity:1"
       d="m 33.322898,19.043909 v 2.836938 l -1.18331,-2.836938 z"
       sodipodi:nodetypes="cccc"
       inkscape:export-filename="E:\STEELJAM\SteelworksJam2\Assets\Sprites\Enemies\leszy_forward_sprite.png"
       inkscape:export-xdpi="96"
       inkscape:export-ydpi="96" />
    <rect
       style="fill:#800080;stroke:none;stroke-width:0.514002;stroke-linecap:round;stroke-linejoin:round;opacity:0"
       id="rect1053"
       width="67.734001"
       height="67.73333"
       x="67.734001"
       y="0.13229166"
       inkscape:export-filename="E:\STEELJAM\SteelworksJam2\Assets\Sprites\Enemies\leszy_left_sprite.png"
       inkscape:export-xdpi="96"
       inkscape:export-ydpi="96" />
    <path
       id="path1055"
       style="fill:#800000;stroke:#000000;stroke-width:0.529166;stroke-linecap:round;stroke-linejoin:round;stroke-miterlimit:4;stroke-dasharray:none"
       d="m 108.24265,54.107311 c 0,3.66808 -2.97357,6.641648 -6.64165,6.641648 -3.668079,0 -6.641647,-2.973568 -6.641647,-6.641648 0,-3.66808 2.973568,-1.349982 6.641647,-1.349982 3.66808,0 6.64165,-2.318098 6.64165,1.349982 z"
       sodipodi:nodetypes="sssss"
       inkscape:export-filename="E:\STEELJAM\SteelworksJam2\Assets\Sprites\Enemies\leszy_left_sprite.png"
       inkscape:export-xdpi="96"
       inkscape:export-ydpi="96" />
    <ellipse
       style="fill:#800000;stroke:#000000;stroke-width:0.264584;stroke-linecap:round;stroke-linejoin:round;stroke-miterlimit:4;stroke-dasharray:none"
       id="ellipse1057"
       cx="101.61987"
       cy="52.961456"
       rx="6.2435141"
       ry="3.8587041"
       inkscape:export-filename="E:\STEELJAM\SteelworksJam2\Assets\Sprites\Enemies\leszy_left_sprite.png"
       inkscape:export-xdpi="96"
       inkscape:export-ydpi="96" />
    <path
       id="path1059"
       style="fill:#552200;stroke:none;stroke-width:0.834848;stroke-linecap:round;stroke-linejoin:round"
       d="m 107.60678,54.114713 c 0,1.74693 -2.45724,2.5828 -5.84698,2.5828 -3.389751,0 -5.879283,-0.674676 -5.879281,-2.421606 0,-1.74693 2.48953,-3.904584 5.879281,-3.904584 3.38974,0 5.84698,1.99646 5.84698,3.74339 z"
       sodipodi:nodetypes="sssss"
       inkscape:export-filename="E:\STEELJAM\SteelworksJam2\Assets\Sprites\Enemies\leszy_left_sprite.png"
       inkscape:export-xdpi="96"
       inkscape:export-ydpi="96" />
    <ellipse
       style="fill:none;stroke:#000000;stroke-width:0.529166;stroke-linecap:round;stroke-linejoin:round;stroke-miterlimit:4;stroke-dasharray:none"
       id="ellipse1061"
       cx="101.61987"
       cy="52.961456"
       rx="6.3713417"
       ry="3.8542399"
       inkscape:export-filename="E:\STEELJAM\SteelworksJam2\Assets\Sprites\Enemies\leszy_left_sprite.png"
       inkscape:export-xdpi="96"
       inkscape:export-ydpi="96" />
    <path
       id="path1063"
       style="fill:#803300;stroke:#000000;stroke-width:0.529166;stroke-linecap:round;stroke-linejoin:round;stroke-miterlimit:4;stroke-dasharray:none"
       d="m 99.947357,37.703126 h 3.307293 v 16.536459 c -1.10243,1.390604 -2.20486,1.069976 -3.307293,0 z"
       sodipodi:nodetypes="ccccc"
       inkscape:export-filename="E:\STEELJAM\SteelworksJam2\Assets\Sprites\Enemies\leszy_left_sprite.png"
       inkscape:export-xdpi="96"
       inkscape:export-ydpi="96" />
    <path
       id="path1065"
       style="fill:#008000;stroke:#000000;stroke-width:0.454198;stroke-linecap:round;stroke-linejoin:round;stroke-miterlimit:4;stroke-dasharray:none"
       d="m 101.65153,30.86069 6.25443,14.761422 c -4.29685,1.399684 -8.593695,1.59624 -12.890539,0 z"
       sodipodi:nodetypes="cccc"
       inkscape:export-filename="E:\STEELJAM\SteelworksJam2\Assets\Sprites\Enemies\leszy_left_sprite.png"
       inkscape:export-xdpi="96"
       inkscape:export-ydpi="96" />
    <path
       id="path1067"
       style="fill:#803300;fill-opacity:1;stroke:#000000;stroke-width:0.529166;stroke-linecap:round;stroke-linejoin:round;stroke-miterlimit:4;stroke-dasharray:none"
       d="m 109.72086,23.799009 h -7.67064 v 3.835318 h 7.67064 c 5.33948,9.824281 2.23605,2.092691 0,-3.835318 z"
       sodipodi:nodetypes="ccccc"
       inkscape:export-filename="E:\STEELJAM\SteelworksJam2\Assets\Sprites\Enemies\leszy_left_sprite.png"
       inkscape:export-xdpi="96"
       inkscape:export-ydpi="96" />
    <g
       id="g1201"
       transform="matrix(1.9824591,-0.26430359,0.26430359,1.9824591,47.972146,-6.14489)"
       inkscape:export-filename="E:\STEELJAM\SteelworksJam2\Assets\Sprites\Enemies\leszy_left_sprite.png"
       inkscape:export-xdpi="96"
       inkscape:export-ydpi="96">
      <path
         id="path1197"
         style="fill:#008000;fill-opacity:1;stroke:#000000;stroke-width:0.264583;stroke-linecap:round;stroke-linejoin:round;stroke-miterlimit:4;stroke-dasharray:none"
         d="m 24.662306,15.734968 c 0.673398,-1.173429 1.458463,-1.258115 2.38125,0 0.667029,1.725202 0.173845,3.239457 -0.514494,4.718228 -1.322292,-1.352202 -1.807023,-2.918527 -1.866756,-4.718228 z"
         sodipodi:nodetypes="cccc" />
      <path
         style="fill:none;stroke:#000000;stroke-width:0.264583px;stroke-linecap:butt;stroke-linejoin:miter;stroke-opacity:1"
         d="m 25.724692,14.850163 c 0.888984,1.686774 0.885242,3.59076 0.795128,5.425571"
         id="path1199"
         sodipodi:nodetypes="cc" />
    </g>
    <path
       id="path1071"
       style="fill:#008000;stroke:#000000;stroke-width:0.439162;stroke-linecap:round;stroke-linejoin:round;stroke-miterlimit:4;stroke-dasharray:none"
       d="m 99.357947,17.152917 5.291213,-0.132293 c -0.61473,5.590067 -0.0626,11.664029 2.24896,15.766565 H 96.116803 c 2.75604,-4.363656 3.974097,-10.11365 3.241144,-15.634272 z"
       sodipodi:nodetypes="ccccc"
       inkscape:export-filename="E:\STEELJAM\SteelworksJam2\Assets\Sprites\Enemies\leszy_left_sprite.png"
       inkscape:export-xdpi="96"
       inkscape:export-ydpi="96" />
    <g
       id="g1225"
       transform="matrix(-1.9824591,-0.26430359,-0.26430359,1.9824591,156.03881,-6.3433275)"
       inkscape:export-filename="E:\STEELJAM\SteelworksJam2\Assets\Sprites\Enemies\leszy_left_sprite.png"
       inkscape:export-xdpi="96"
       inkscape:export-ydpi="96">
      <path
         id="path1221"
         style="fill:#008000;fill-opacity:1;stroke:#000000;stroke-width:0.264583;stroke-linecap:round;stroke-linejoin:round;stroke-miterlimit:4;stroke-dasharray:none"
         d="m 24.662306,15.734968 c 0.673398,-1.173429 1.458463,-1.258115 2.38125,0 0.667029,1.725202 0.173845,3.239457 -0.514494,4.718228 -1.322292,-1.352202 -1.807023,-2.918527 -1.866756,-4.718228 z"
         sodipodi:nodetypes="cccc" />
      <path
         style="fill:none;stroke:#000000;stroke-width:0.264583px;stroke-linecap:butt;stroke-linejoin:miter;stroke-opacity:1"
         d="m 25.724692,14.850163 c 0.888984,1.686774 0.885242,3.59076 0.795128,5.425571"
         id="path1223"
         sodipodi:nodetypes="cc" />
    </g>
    <path
       id="path1069"
       style="fill:#803300;fill-opacity:1;stroke:#000000;stroke-width:0.529166;stroke-linecap:round;stroke-linejoin:round;stroke-miterlimit:4;stroke-dasharray:none"
       d="m 94.253821,27.744703 h 7.670639 v -3.835318 h -7.670639 c -5.339474,-9.824275 -2.236052,-2.09269 0,3.835318 z"
       sodipodi:nodetypes="ccccc"
       inkscape:export-filename="E:\STEELJAM\SteelworksJam2\Assets\Sprites\Enemies\leszy_left_sprite.png"
       inkscape:export-xdpi="96"
       inkscape:export-ydpi="96" />
    <g
       id="g1101"
       transform="matrix(-1.9917753,-0.18119487,-0.18119487,1.9917753,152.73015,5.8865077)"
       inkscape:export-filename="E:\STEELJAM\SteelworksJam2\Assets\Sprites\Enemies\leszy_left_sprite.png"
       inkscape:export-xdpi="96"
       inkscape:export-ydpi="96">
      <path
         id="path1097"
         style="fill:#008000;fill-opacity:1;stroke:#000000;stroke-width:0.264583;stroke-linecap:round;stroke-linejoin:round;stroke-miterlimit:4;stroke-dasharray:none"
         d="m 24.662306,15.734968 c 0.673398,-1.173429 1.458463,-1.258115 2.38125,0 0.667029,1.725202 0.173845,3.239457 -0.514494,4.718228 -1.322292,-1.352202 -1.807023,-2.918527 -1.866756,-4.718228 z"
         sodipodi:nodetypes="cccc" />
      <path
         style="fill:none;stroke:#000000;stroke-width:0.264583px;stroke-linecap:butt;stroke-linejoin:miter;stroke-opacity:1"
         d="m 25.724692,14.850163 c 0.888984,1.686774 0.885242,3.59076 0.795128,5.425571"
         id="path1099"
         sodipodi:nodetypes="cc" />
    </g>
    <g
       id="g1113"
       transform="matrix(-1.9606287,0.39488652,0.39488652,1.9606287,148.88415,-9.3413973)"
       inkscape:export-filename="E:\STEELJAM\SteelworksJam2\Assets\Sprites\Enemies\leszy_left_sprite.png"
       inkscape:export-xdpi="96"
       inkscape:export-ydpi="96">
      <path
         id="path1109"
         style="fill:#008000;fill-opacity:1;stroke:#000000;stroke-width:0.264583;stroke-linecap:round;stroke-linejoin:round;stroke-miterlimit:4;stroke-dasharray:none"
         d="m 24.662306,15.734968 c 0.673398,-1.173429 1.458463,-1.258115 2.38125,0 0.667029,1.725202 0.173845,3.239457 -0.514494,4.718228 -1.322292,-1.352202 -1.807023,-2.918527 -1.866756,-4.718228 z"
         sodipodi:nodetypes="cccc" />
      <path
         style="fill:none;stroke:#000000;stroke-width:0.264583px;stroke-linecap:butt;stroke-linejoin:miter;stroke-opacity:1"
         d="m 25.724692,14.850163 c 0.888984,1.686774 0.885242,3.59076 0.795128,5.425571"
         id="path1111"
         sodipodi:nodetypes="cc" />
    </g>
    <g
       id="g1119"
       transform="matrix(-1.9606287,0.39488652,0.39488652,1.9606287,146.17137,-8.9672199)"
       inkscape:export-filename="E:\STEELJAM\SteelworksJam2\Assets\Sprites\Enemies\leszy_left_sprite.png"
       inkscape:export-xdpi="96"
       inkscape:export-ydpi="96">
      <path
         id="path1115"
         style="fill:#008000;fill-opacity:1;stroke:#000000;stroke-width:0.264583;stroke-linecap:round;stroke-linejoin:round;stroke-miterlimit:4;stroke-dasharray:none"
         d="m 24.662306,15.734968 c 0.673398,-1.173429 1.458463,-1.258115 2.38125,0 0.667029,1.725202 0.173845,3.239457 -0.514494,4.718228 -1.322292,-1.352202 -1.807023,-2.918527 -1.866756,-4.718228 z"
         sodipodi:nodetypes="cccc" />
      <path
         style="fill:none;stroke:#000000;stroke-width:0.264583px;stroke-linecap:butt;stroke-linejoin:miter;stroke-opacity:1"
         d="m 25.724692,14.850163 c 0.888984,1.686774 0.885242,3.59076 0.795128,5.425571"
         id="path1117"
         sodipodi:nodetypes="cc" />
    </g>
    <rect
       style="fill:#800080;stroke:none;stroke-width:0.514002;stroke-linecap:round;stroke-linejoin:round;opacity:0"
       id="rect1125"
       width="67.734001"
       height="67.73333"
       x="135.468"
       y="0.13229166"
       inkscape:export-filename="E:\STEELJAM\SteelworksJam2\Assets\Sprites\Enemies\leszy_back_sprite.png"
       inkscape:export-xdpi="96"
       inkscape:export-ydpi="96" />
    <path
       id="path1127"
       style="fill:#800000;stroke:#000000;stroke-width:0.529166;stroke-linecap:round;stroke-linejoin:round;stroke-miterlimit:4;stroke-dasharray:none"
       d="m 175.97666,54.107311 c 0,3.66808 -2.97357,6.641648 -6.64165,6.641648 -3.66808,0 -6.64165,-2.973568 -6.64165,-6.641648 0,-3.66808 2.97357,-1.349982 6.64165,-1.349982 3.66808,0 6.64165,-2.318098 6.64165,1.349982 z"
       sodipodi:nodetypes="sssss"
       inkscape:export-filename="E:\STEELJAM\SteelworksJam2\Assets\Sprites\Enemies\leszy_back_sprite.png"
       inkscape:export-xdpi="96"
       inkscape:export-ydpi="96" />
    <ellipse
       style="fill:#800000;stroke:#000000;stroke-width:0.264584;stroke-linecap:round;stroke-linejoin:round;stroke-miterlimit:4;stroke-dasharray:none"
       id="ellipse1129"
       cx="169.35388"
       cy="52.961456"
       rx="6.2435141"
       ry="3.8587041"
       inkscape:export-filename="E:\STEELJAM\SteelworksJam2\Assets\Sprites\Enemies\leszy_back_sprite.png"
       inkscape:export-xdpi="96"
       inkscape:export-ydpi="96" />
    <path
       id="path1131"
       style="fill:#552200;stroke:none;stroke-width:0.834848;stroke-linecap:round;stroke-linejoin:round"
       d="m 175.34078,54.114713 c 0,1.74693 -2.45723,2.5828 -5.84698,2.5828 -3.38975,0 -5.87928,-0.674676 -5.87928,-2.421606 0,-1.74693 2.48953,-3.904584 5.87928,-3.904584 3.38975,0 5.84698,1.99646 5.84698,3.74339 z"
       sodipodi:nodetypes="sssss"
       inkscape:export-filename="E:\STEELJAM\SteelworksJam2\Assets\Sprites\Enemies\leszy_back_sprite.png"
       inkscape:export-xdpi="96"
       inkscape:export-ydpi="96" />
    <ellipse
       style="fill:none;stroke:#000000;stroke-width:0.529166;stroke-linecap:round;stroke-linejoin:round;stroke-miterlimit:4;stroke-dasharray:none"
       id="ellipse1133"
       cx="169.35388"
       cy="52.961456"
       rx="6.3713417"
       ry="3.8542399"
       inkscape:export-filename="E:\STEELJAM\SteelworksJam2\Assets\Sprites\Enemies\leszy_back_sprite.png"
       inkscape:export-xdpi="96"
       inkscape:export-ydpi="96" />
    <path
       id="path1135"
       style="fill:#803300;stroke:#000000;stroke-width:0.529166;stroke-linecap:round;stroke-linejoin:round;stroke-miterlimit:4;stroke-dasharray:none"
       d="m 167.68136,37.703126 h 3.30729 v 16.536459 c -1.10243,1.390604 -2.20486,1.069976 -3.30729,0 z"
       sodipodi:nodetypes="ccccc"
       inkscape:export-filename="E:\STEELJAM\SteelworksJam2\Assets\Sprites\Enemies\leszy_back_sprite.png"
       inkscape:export-xdpi="96"
       inkscape:export-ydpi="96" />
    <path
       id="path1137"
       style="fill:#008000;stroke:#000000;stroke-width:0.529166;stroke-linecap:round;stroke-linejoin:round;stroke-miterlimit:4;stroke-dasharray:none"
       d="m 169.59536,30.898172 8.53282,14.686458 c -5.76343,1.973578 -11.64707,1.543034 -17.58634,0 z"
       sodipodi:nodetypes="cccc"
       inkscape:export-filename="E:\STEELJAM\SteelworksJam2\Assets\Sprites\Enemies\leszy_back_sprite.png"
       inkscape:export-xdpi="96"
       inkscape:export-ydpi="96" />
    <path
       id="path1139"
       style="fill:#803300;fill-opacity:1;stroke:#000000;stroke-width:0.529166;stroke-linecap:round;stroke-linejoin:round;stroke-miterlimit:4;stroke-dasharray:none"
       d="m 156.46871,26.154451 h 7.67064 v -3.835318 h -7.67064 c -5.33948,-9.82428 -2.23605,-2.09269 0,3.835318 z"
       sodipodi:nodetypes="ccccc"
       inkscape:export-filename="E:\STEELJAM\SteelworksJam2\Assets\Sprites\Enemies\leszy_back_sprite.png"
       inkscape:export-xdpi="96"
       inkscape:export-ydpi="96" />
    <path
       id="path1141"
       style="fill:#803300;fill-opacity:1;stroke:#000000;stroke-width:0.529166;stroke-linecap:round;stroke-linejoin:round;stroke-miterlimit:4;stroke-dasharray:none"
       d="m 183.06753,22.489389 h -7.67064 v 3.835318 h 7.67064 c 5.33947,9.824277 2.23605,2.09269 0,-3.835318 z"
       sodipodi:nodetypes="ccccc"
       inkscape:export-filename="E:\STEELJAM\SteelworksJam2\Assets\Sprites\Enemies\leszy_back_sprite.png"
       inkscape:export-xdpi="96"
       inkscape:export-ydpi="96" />
    <path
       id="path1143"
       style="fill:#008000;stroke:#000000;stroke-width:0.529166;stroke-linecap:round;stroke-linejoin:round;stroke-miterlimit:4;stroke-dasharray:none"
       d="m 161.46365,16.99948 h 15.74272 c -0.89763,5.558287 -3.37525,11.663494 0,15.742708 h -15.74271 c 4.02432,-4.338849 1.07024,-10.253469 -1e-5,-15.742708 z"
       sodipodi:nodetypes="ccccc"
       inkscape:export-filename="E:\STEELJAM\SteelworksJam2\Assets\Sprites\Enemies\leszy_back_sprite.png"
       inkscape:export-xdpi="96"
       inkscape:export-ydpi="96" />
    <g
       id="g1149"
       transform="matrix(-1.5628676,-1.2479765,-1.2479765,1.5628676,224.10201,25.173373)"
       inkscape:export-filename="E:\STEELJAM\SteelworksJam2\Assets\Sprites\Enemies\leszy_back_sprite.png"
       inkscape:export-xdpi="96"
       inkscape:export-ydpi="96">
      <path
         id="path1145"
         style="fill:#008000;fill-opacity:1;stroke:#000000;stroke-width:0.264583;stroke-linecap:round;stroke-linejoin:round;stroke-miterlimit:4;stroke-dasharray:none"
         d="m 24.662306,15.734968 c 0.673398,-1.173429 1.458463,-1.258115 2.38125,0 0.667029,1.725202 0.173845,3.239457 -0.514494,4.718228 -1.322292,-1.352202 -1.807023,-2.918527 -1.866756,-4.718228 z"
         sodipodi:nodetypes="cccc" />
      <path
         style="fill:none;stroke:#000000;stroke-width:0.264583px;stroke-linecap:butt;stroke-linejoin:miter;stroke-opacity:1"
         d="m 25.724692,14.850163 c 0.888984,1.686774 0.885242,3.59076 0.795128,5.425571"
         id="path1147"
         sodipodi:nodetypes="cc" />
    </g>
    <g
       id="g1155"
       transform="matrix(1.5628676,-1.2479765,1.2479765,1.5628676,114.54519,25.266916)"
       inkscape:export-filename="E:\STEELJAM\SteelworksJam2\Assets\Sprites\Enemies\leszy_back_sprite.png"
       inkscape:export-xdpi="96"
       inkscape:export-ydpi="96">
      <path
         id="path1151"
         style="fill:#008000;fill-opacity:1;stroke:#000000;stroke-width:0.264583;stroke-linecap:round;stroke-linejoin:round;stroke-miterlimit:4;stroke-dasharray:none"
         d="m 24.662306,15.734968 c 0.673398,-1.173429 1.458463,-1.258115 2.38125,0 0.667029,1.725202 0.173845,3.239457 -0.514494,4.718228 -1.322292,-1.352202 -1.807023,-2.918527 -1.866756,-4.718228 z"
         sodipodi:nodetypes="cccc" />
      <path
         style="fill:none;stroke:#000000;stroke-width:0.264583px;stroke-linecap:butt;stroke-linejoin:miter;stroke-opacity:1"
         d="m 25.724692,14.850163 c 0.888984,1.686774 0.885242,3.59076 0.795128,5.425571"
         id="path1153"
         sodipodi:nodetypes="cc" />
    </g>
    <path
       id="path1157"
       style="fill:#803300;fill-opacity:1;stroke:#000000;stroke-width:0.529166;stroke-linecap:round;stroke-linejoin:round;stroke-miterlimit:4;stroke-dasharray:none"
       d="m 160.72538,8.1772788 c -4.95884,-6.0583311 -3.99976,-3.7329394 0,2.9000822 l 0.93403,-0.210475 1.00661,-0.9354439 1.33344,0.9997279 1.96384,0.14619 v 8.580355 c 2.30753,1.940942 4.61505,1.850982 6.92258,0 v -8.580354 h 1.5751 l 1.07467,1.379778 0.31312,-2.346325 2.27503,0.966547 c 5.31852,-10.13655481 1.42516,-4.3905616 0,-2.9000822 l -1.74595,0.2916588 -0.009,-1.8551807 -2.28959,1.8640109 -1.21963,-1.7940984 -0.97864,2.1391341 -9.04786,-0.7097225 0.2503,-2.3501251 z"
       sodipodi:nodetypes="cccccccccccccccccccccc"
       inkscape:export-filename="E:\STEELJAM\SteelworksJam2\Assets\Sprites\Enemies\leszy_back_sprite.png"
       inkscape:export-xdpi="96"
       inkscape:export-ydpi="96" />
    <g
       id="g1167"
       transform="matrix(-1.7889944,-0.89414739,-0.89414739,1.7889944,225.04241,27.433051)"
       inkscape:export-filename="E:\STEELJAM\SteelworksJam2\Assets\Sprites\Enemies\leszy_back_sprite.png"
       inkscape:export-xdpi="96"
       inkscape:export-ydpi="96">
      <path
         id="path1163"
         style="fill:#008000;fill-opacity:1;stroke:#000000;stroke-width:0.264583;stroke-linecap:round;stroke-linejoin:round;stroke-miterlimit:4;stroke-dasharray:none"
         d="m 24.662306,15.734968 c 0.673398,-1.173429 1.458463,-1.258115 2.38125,0 0.667029,1.725202 0.173845,3.239457 -0.514494,4.718228 -1.322292,-1.352202 -1.807023,-2.918527 -1.866756,-4.718228 z"
         sodipodi:nodetypes="cccc" />
      <path
         style="fill:none;stroke:#000000;stroke-width:0.264583px;stroke-linecap:butt;stroke-linejoin:miter;stroke-opacity:1"
         d="m 25.724692,14.850163 c 0.888984,1.686774 0.885242,3.59076 0.795128,5.425571"
         id="path1165"
         sodipodi:nodetypes="cc" />
    </g>
    <g
       id="g1173"
       transform="matrix(-1.9917753,-0.18119487,-0.18119487,1.9917753,220.46415,5.8865077)"
       inkscape:export-filename="E:\STEELJAM\SteelworksJam2\Assets\Sprites\Enemies\leszy_back_sprite.png"
       inkscape:export-xdpi="96"
       inkscape:export-ydpi="96">
      <path
         id="path1169"
         style="fill:#008000;fill-opacity:1;stroke:#000000;stroke-width:0.264583;stroke-linecap:round;stroke-linejoin:round;stroke-miterlimit:4;stroke-dasharray:none"
         d="m 24.662306,15.734968 c 0.673398,-1.173429 1.458463,-1.258115 2.38125,0 0.667029,1.725202 0.173845,3.239457 -0.514494,4.718228 -1.322292,-1.352202 -1.807023,-2.918527 -1.866756,-4.718228 z"
         sodipodi:nodetypes="cccc" />
      <path
         style="fill:none;stroke:#000000;stroke-width:0.264583px;stroke-linecap:butt;stroke-linejoin:miter;stroke-opacity:1"
         d="m 25.724692,14.850163 c 0.888984,1.686774 0.885242,3.59076 0.795128,5.425571"
         id="path1171"
         sodipodi:nodetypes="cc" />
    </g>
    <g
       id="g1179"
       transform="matrix(1.9992469,-0.05488456,0.05488456,1.9992469,123.4462,1.8171778)"
       inkscape:export-filename="E:\STEELJAM\SteelworksJam2\Assets\Sprites\Enemies\leszy_back_sprite.png"
       inkscape:export-xdpi="96"
       inkscape:export-ydpi="96">
      <path
         id="path1175"
         style="fill:#008000;fill-opacity:1;stroke:#000000;stroke-width:0.264583;stroke-linecap:round;stroke-linejoin:round;stroke-miterlimit:4;stroke-dasharray:none"
         d="m 24.662306,15.734968 c 0.673398,-1.173429 1.458463,-1.258115 2.38125,0 0.667029,1.725202 0.173845,3.239457 -0.514494,4.718228 -1.322292,-1.352202 -1.807023,-2.918527 -1.866756,-4.718228 z"
         sodipodi:nodetypes="cccc" />
      <path
         style="fill:none;stroke:#000000;stroke-width:0.264583px;stroke-linecap:butt;stroke-linejoin:miter;stroke-opacity:1"
         d="m 25.724692,14.850163 c 0.888984,1.686774 0.885242,3.59076 0.795128,5.425571"
         id="path1177"
         sodipodi:nodetypes="cc" />
    </g>
    <g
       id="g1185"
       transform="matrix(-1.9606287,0.39488652,0.39488652,1.9606287,216.61815,-9.3413973)"
       inkscape:export-filename="E:\STEELJAM\SteelworksJam2\Assets\Sprites\Enemies\leszy_back_sprite.png"
       inkscape:export-xdpi="96"
       inkscape:export-ydpi="96">
      <path
         id="path1181"
         style="fill:#008000;fill-opacity:1;stroke:#000000;stroke-width:0.264583;stroke-linecap:round;stroke-linejoin:round;stroke-miterlimit:4;stroke-dasharray:none"
         d="m 24.662306,15.734968 c 0.673398,-1.173429 1.458463,-1.258115 2.38125,0 0.667029,1.725202 0.173845,3.239457 -0.514494,4.718228 -1.322292,-1.352202 -1.807023,-2.918527 -1.866756,-4.718228 z"
         sodipodi:nodetypes="cccc" />
      <path
         style="fill:none;stroke:#000000;stroke-width:0.264583px;stroke-linecap:butt;stroke-linejoin:miter;stroke-opacity:1"
         d="m 25.724692,14.850163 c 0.888984,1.686774 0.885242,3.59076 0.795128,5.425571"
         id="path1183"
         sodipodi:nodetypes="cc" />
    </g>
    <g
       id="g1191"
       transform="matrix(-1.9606287,0.39488652,0.39488652,1.9606287,213.90537,-8.9672199)"
       inkscape:export-filename="E:\STEELJAM\SteelworksJam2\Assets\Sprites\Enemies\leszy_back_sprite.png"
       inkscape:export-xdpi="96"
       inkscape:export-ydpi="96">
      <path
         id="path1187"
         style="fill:#008000;fill-opacity:1;stroke:#000000;stroke-width:0.264583;stroke-linecap:round;stroke-linejoin:round;stroke-miterlimit:4;stroke-dasharray:none"
         d="m 24.662306,15.734968 c 0.673398,-1.173429 1.458463,-1.258115 2.38125,0 0.667029,1.725202 0.173845,3.239457 -0.514494,4.718228 -1.322292,-1.352202 -1.807023,-2.918527 -1.866756,-4.718228 z"
         sodipodi:nodetypes="cccc" />
      <path
         style="fill:none;stroke:#000000;stroke-width:0.264583px;stroke-linecap:butt;stroke-linejoin:miter;stroke-opacity:1"
         d="m 25.724692,14.850163 c 0.888984,1.686774 0.885242,3.59076 0.795128,5.425571"
         id="path1189"
         sodipodi:nodetypes="cc" />
    </g>
    <path
       id="rect1203"
       style="fill:#803300;fill-opacity:1;stroke:#000000;stroke-width:0.529166;stroke-linecap:round;stroke-linejoin:round;stroke-miterlimit:4;stroke-dasharray:none;stroke-opacity:1"
       d="m 99.624723,8.6996237 h 4.583677 c 0.54317,3.1493263 0.68795,6.2986523 0,9.4479783 h -4.583677 c -0.479076,-2.989634 -0.306448,-6.196503 0,-9.4479783 z"
       sodipodi:nodetypes="ccccc"
       inkscape:export-filename="E:\STEELJAM\SteelworksJam2\Assets\Sprites\Enemies\leszy_left_sprite.png"
       inkscape:export-xdpi="96"
       inkscape:export-ydpi="96" />
    <ellipse
       style="fill:#000000;fill-opacity:1;stroke:#000000;stroke-width:0.529166;stroke-linecap:round;stroke-linejoin:round;stroke-miterlimit:4;stroke-dasharray:none;stroke-opacity:1"
       id="path1205"
       cx="100.23276"
       cy="12.394625"
       rx="0.60803825"
       ry="2.666014"
       inkscape:export-filename="E:\STEELJAM\SteelworksJam2\Assets\Sprites\Enemies\leszy_left_sprite.png"
       inkscape:export-xdpi="96"
       inkscape:export-ydpi="96" />
    <path
       id="rect1207"
       style="fill:#ffffff;fill-opacity:1;stroke:#000000;stroke-width:0.529166;stroke-linecap:round;stroke-linejoin:round;stroke-miterlimit:4;stroke-dasharray:none;stroke-opacity:1"
       d="m 99.349757,16.331512 h 1.590253 l -1.590253,3.274051 z"
       sodipodi:nodetypes="cccc"
       inkscape:export-filename="E:\STEELJAM\SteelworksJam2\Assets\Sprites\Enemies\leszy_left_sprite.png"
       inkscape:export-xdpi="96"
       inkscape:export-ydpi="96" />
    <path
       id="rect1210"
       style="fill:#803300;fill-opacity:1;stroke:#000000;stroke-width:0.486977;stroke-linecap:round;stroke-linejoin:round;stroke-miterlimit:4;stroke-dasharray:none;stroke-opacity:1"
       d="m 102.41339,2.5290447 -0.32039,2.0381186 -1.52239,-1.4314373 -0.929142,0.9880535 2.077392,1.9544026 0.16433,-0.1746662 -0.52813,3.3631024 2.49907,0.8423257 0.28732,-1.8303793 h 2.78019 V 6.6879642 h -2.53008 l 0.52091,-3.3155601 z"
       inkscape:export-filename="E:\STEELJAM\SteelworksJam2\Assets\Sprites\Enemies\leszy_left_sprite.png"
       inkscape:export-xdpi="96"
       inkscape:export-ydpi="96" />
  </g>
  <g
     inkscape:groupmode="layer"
     id="layer2"
     inkscape:label="Layer 2" />
</svg>
