<?xml version="1.0" encoding="utf-8"?>
<!-- Generator: Adobe Illustrator 25.0.1, SVG Export Plug-In . SVG Version: 6.00 Build 0)  -->
<svg version="1.1"
	 id="svg8" xmlns:cc="http://creativecommons.org/ns#" xmlns:dc="http://purl.org/dc/elements/1.1/" xmlns:inkscape="http://www.inkscape.org/namespaces/inkscape" xmlns:rdf="http://www.w3.org/1999/02/22-rdf-syntax-ns#" xmlns:sodipodi="http://sodipodi.sourceforge.net/DTD/sodipodi-0.dtd" xmlns:svg="http://www.w3.org/2000/svg"
	 xmlns="http://www.w3.org/2000/svg" xmlns:xlink="http://www.w3.org/1999/xlink" x="0px" y="0px" viewBox="0 0 288 96"
	 style="enable-background:new 0 0 288 96;" xml:space="preserve">
<style type="text/css">
	.st0{fill:#FFEEAA;stroke:#000000;stroke-width:0.75;stroke-linecap:round;stroke-linejoin:round;stroke-miterlimit:11.3386;}
	.st1{fill:#333333;stroke:#000000;stroke-width:0.5672;stroke-linecap:round;stroke-linejoin:round;stroke-miterlimit:11.3386;}
	.st2{fill:#333333;stroke:#000000;stroke-width:0.75;stroke-linecap:round;stroke-linejoin:round;stroke-miterlimit:11.3386;}
	.st3{fill:#333333;stroke:#000000;stroke-width:0.4736;stroke-linecap:round;stroke-linejoin:round;stroke-miterlimit:11.3386;}
	.st4{fill:#502D16;stroke:#000000;stroke-width:0.75;stroke-linecap:round;stroke-linejoin:round;stroke-miterlimit:11.3386;}
	.st5{fill:#E6E6E6;stroke:#000000;stroke-width:1.0169;stroke-linecap:round;stroke-linejoin:round;stroke-miterlimit:11.3386;}
	.st6{fill:#FFB380;stroke:#000000;stroke-width:0.75;stroke-linecap:round;stroke-linejoin:round;stroke-miterlimit:11.3386;}
	.st7{fill:#483737;stroke:#000000;stroke-width:0.75;stroke-linecap:round;stroke-linejoin:round;stroke-miterlimit:11.3386;}
	.st8{fill:#AA8800;stroke:#000000;stroke-width:0.5815;stroke-linecap:round;stroke-linejoin:round;stroke-miterlimit:11.3386;}
	.st9{fill:#AFC6E9;stroke:#000000;stroke-width:0.75;stroke-linecap:round;stroke-linejoin:round;stroke-miterlimit:11.3386;}
	.st10{fill:#E6E6E6;stroke:#000000;stroke-width:0.75;stroke-linecap:round;stroke-linejoin:round;stroke-miterlimit:11.3386;}
	.st11{fill:#FFB380;stroke:#000000;stroke-width:0.8816;stroke-linecap:round;stroke-linejoin:round;stroke-miterlimit:11.3386;}
	.st12{fill:#800000;stroke:#000000;stroke-width:0.2835;stroke-linecap:round;stroke-linejoin:round;stroke-miterlimit:11.3386;}
	.st13{fill:#A31C1C;stroke:#000000;stroke-width:0.1;stroke-linejoin:round;stroke-miterlimit:10;}
	.st14{fill:#E6E6E6;stroke:#000000;stroke-width:0.215;stroke-linecap:round;stroke-linejoin:round;}
	.st15{fill:#E6E6E6;stroke:#000000;stroke-width:0.25;stroke-linecap:round;stroke-linejoin:round;stroke-miterlimit:11.3386;}
	.st16{fill:#E6E6E6;stroke:#000000;stroke-width:0.5;stroke-linecap:round;stroke-linejoin:round;stroke-miterlimit:11.3386;}
	.st17{fill:#AA8800;stroke:#000000;stroke-width:0.5;stroke-linecap:round;stroke-linejoin:round;stroke-miterlimit:11.3386;}
	.st18{fill:none;stroke:#000000;stroke-width:0.75;stroke-miterlimit:11.3386;}
	.st19{fill:#AA8800;stroke:#000000;stroke-width:0.468;stroke-linecap:round;stroke-linejoin:round;stroke-miterlimit:11.3386;}
	.st20{fill:#483737;stroke:#000000;stroke-width:0.4165;stroke-linecap:round;stroke-linejoin:round;stroke-miterlimit:11.3386;}
	.st21{fill:#E6E6E6;stroke:#000000;stroke-width:0.75;stroke-linecap:round;stroke-linejoin:round;stroke-miterlimit:3;}
	.st22{fill:#AA8800;stroke:#000000;stroke-width:0.8764;stroke-linecap:round;stroke-linejoin:round;stroke-miterlimit:11.3386;}
	.st23{fill:#AA8800;stroke:#000000;stroke-width:0.5756;stroke-linecap:round;stroke-linejoin:round;stroke-miterlimit:11.3386;}
	.st24{fill:#AFC6E9;stroke:#000000;stroke-width:0.697;stroke-linecap:round;stroke-linejoin:round;stroke-miterlimit:11.3386;}
	.st25{fill:#FFB380;stroke:#000000;stroke-width:0.437;stroke-linecap:round;stroke-linejoin:round;stroke-miterlimit:11.3386;}
</style>
<sodipodi:namedview  bordercolor="#666666" borderopacity="1.0" id="base" inkscape:current-layer="layer2" inkscape:cx="191.20116" inkscape:cy="84.915958" inkscape:document-rotation="0" inkscape:document-units="mm" inkscape:object-nodes="false" inkscape:pageopacity="0.0" inkscape:pageshadow="2" inkscape:snap-grids="false" inkscape:snap-nodes="false" inkscape:snap-others="false" inkscape:snap-to-guides="false" inkscape:window-height="1017" inkscape:window-maximized="1" inkscape:window-width="1920" inkscape:window-x="-8" inkscape:window-y="-8" inkscape:zoom="4" pagecolor="#ffffff" showgrid="false">
	</sodipodi:namedview>
<g>
	<g id="g1175" transform="translate(75.445144,-0.38039929)">
		<path id="path1167" class="st0" d="M174.8,64.1V68c-0.6,0.6-0.9,1.3-0.9,2.2c0,1.7,1.3,3,3,3c1.7,0,3-1.3,3-3c0,0,0,0,0,0
			c0-0.8-0.3-1.6-0.9-2.2v-3.9H174.8z"/>
		<path id="path1169" class="st1" d="M175.5,60.7v3h-0.8h-0.5v4h1.3v-2.4h2.6v2.4h1.3v-4H179h-0.8v-3H175.5z"/>
		<rect id="rect1171" x="173.9" y="73.2" class="st2" width="6" height="1.9"/>
		<rect id="rect1173" x="175.3" y="72" class="st3" width="3.1" height="1.4"/>
	</g>
	<g id="g1183" transform="matrix(-0.85825889,0.51321698,0.51321698,0.85825889,86.429963,-8.5900813)">
		<rect id="rect1179" x="-83.9" y="136.3" class="st4" width="2.5" height="-15.2"/>
		<path id="path1181" sodipodi:nodetypes="sssss" class="st5" d="M-73.2,122c0,1.9-4.2-0.7-9.4-0.7s-9.4,2.6-9.4,0.7
			c0-1.9,4.2-3.4,9.4-3.4C-77.4,118.6-73.2,120.1-73.2,122z"/>
	</g>
	<ellipse id="ellipse1177" class="st6" cx="226" cy="64.2" rx="2.1" ry="1.3"/>
	<path id="path1189" sodipodi:nodetypes="ccccc" class="st7" d="M241.5,74.3h3.6v10.7c-1.1,0.9-2.2,1.4-3.6,0V74.3z"/>
	<path id="path1191" sodipodi:nodetypes="ccccc" class="st7" d="M234.4,74.3h3.6v10.7c-1.1,0.9-2.2,1.4-3.6,0V74.3z"/>
	<path id="path1137" sodipodi:nodetypes="ccccc" class="st7" d="M241.5,74.3h3.6v10.7c-1.1,0.9-2.2,1.4-3.6,0V74.3z"/>
	<path id="path1139" sodipodi:nodetypes="ccccc" class="st7" d="M234.4,74.3h3.6v10.7c-1.1,0.9-2.2,1.4-3.6,0V74.3z"/>
	<ellipse id="ellipse1241" class="st6" cx="252.2" cy="60" rx="2.1" ry="1.3"/>
	<path id="path1141" sodipodi:nodetypes="sssss" class="st7" d="M251.3,59.4c0,6.3,13,24.3-11.3,24.3c-24.9,0-11.3-18-11.3-24.3
		c0-6.3,5.2-6.2,11.4-6.2S251.3,53.2,251.3,59.4z"/>
	<path id="path1149" sodipodi:nodetypes="sssss" class="st8" d="M248,44.4c0,2.9-3.6,1.1-8.1,1.1s-8.1,1.8-8.1-1.1
		c0-2.9,3.6-7.4,8.1-7.4C244.3,37,248,41.5,248,44.4z"/>
	<circle id="circle1151" class="st9" cx="239.9" cy="40.3" r="2.4"/>
	<path id="path1195" sodipodi:nodetypes="sssss" class="st10" d="M248.5,47.1c0,4.7,4,32-8.5,32c-13.4,0-8.5-27.3-8.5-32
		c0-4.7,3.8-8.5,8.5-8.5C244.6,38.6,248.5,42.4,248.5,47.1z"/>
	<path id="path1201" sodipodi:nodetypes="sssss" class="st8" d="M248,44.4c0,2.9-3.6,1.1-8.1,1.1s-8.1,1.8-8.1-1.1
		c0-2.9,3.6-7.4,8.1-7.4C244.3,37,248,41.5,248,44.4z"/>
</g>
<g>
	<path id="path838" sodipodi:nodetypes="sssss" class="st6" d="M56.5,47.1c0,4.7-3.9,9.7-8.6,9.7s-8.4-5-8.4-9.7s3.8-8.5,8.5-8.5
		S56.5,42.4,56.5,47.1z"/>
	<g id="g909" transform="translate(0.06614583,1.0252604)">
		<path id="rect874" class="st0" d="M36.5,66.7v3.9c-0.6,0.6-0.9,1.3-0.9,2.2c0,1.7,1.3,3,3,3c1.7,0,3-1.3,3-3c0,0,0,0,0,0
			c0-0.8-0.3-1.6-0.9-2.2v-3.9H36.5z"/>
		<path id="rect872" class="st1" d="M37.3,63.3v3h-0.8H36v4h1.3v-2.4h2.6v2.4h1.3v-4h-0.5h-0.8v-3H37.3z"/>
		<rect id="rect896" x="35.6" y="75.7" class="st2" width="6" height="1.9"/>
		<rect id="rect898" x="37" y="74.6" class="st3" width="3.1" height="1.4"/>
	</g>
	<ellipse id="path903" class="st6" cx="38.5" cy="64.3" rx="2.1" ry="1.3"/>
	<ellipse id="ellipse915" class="st11" cx="59.8" cy="62.7" rx="2.1" ry="1.8"/>
	<path id="path949" sodipodi:nodetypes="ccccc" class="st7" d="M49.5,74.3h3.6v10.7c-1.1,0.9-2.2,1.4-3.6,0V74.3z"/>
	<path id="path951" sodipodi:nodetypes="ccccc" class="st7" d="M42.4,74.3H46v10.7c-1.1,0.9-2.2,1.4-3.6,0V74.3z"/>
	<path id="path953" sodipodi:nodetypes="sssss" class="st7" d="M59.3,59.4c0,6.3,13,24.3-11.3,24.3c-24.9,0-11.3-18-11.3-24.3
		c0-6.3,5.2-6.2,11.4-6.2S59.3,53.2,59.3,59.4z"/>
	<path id="path961" sodipodi:nodetypes="sssss" class="st8" d="M56,44.4c0,2.9-3.6,1.1-8.1,1.1c-4.5,0-8.1,1.8-8.1-1.1
		c0-2.9,3.6-7.4,8.1-7.4S56,41.5,56,44.4z"/>
	<circle id="circle963" class="st9" cx="47.9" cy="40.3" r="2.4"/>
	<ellipse id="ellipse965" class="st12" cx="47.7" cy="53.6" rx="2.8" ry="1.6"/>
	<ellipse class="st13" cx="51.1" cy="48.4" rx="1.5" ry="0.5"/>
	<path class="st13" d="M45.3,49c-0.3-0.3-0.3-0.8,0-1.1c-0.3,0.3-0.8,0.3-1.1,0c0.3,0.3,0.3,0.8,0,1.1C44.5,48.7,45,48.7,45.3,49z"
		/>
	<path class="st14" d="M42.3,45.5h-2.7c-0.1,0.5-0.2,1-0.2,1.6c0,1.6,0.4,3.1,1.1,4.6l2.3,0.4C40,46.8,42.3,45.5,42.3,45.5z"/>
	<path class="st14" d="M53.5,45.5h2.7c0.1,0.5,0.2,1,0.2,1.6c0,1.6-0.4,3.1-1.1,4.6L53,52C55.9,46.8,53.5,45.5,53.5,45.5z"/>
	<path id="path865" sodipodi:nodetypes="sscsssscsss" class="st15" d="M51.4,49.4c-0.4,0-1,0-1.5,0.2c-1,0.2-1.8,0.7-2.2,1.1
		c-0.4-0.4-1.2-0.9-2.2-1.1c-0.5-0.1-1.1-0.2-1.5-0.2c-0.7,0-3.2,1.4-3.3,1.8c-0.1,0.6,3.1-1,4.5-0.7c1.2,0.3,2.1,1,2.5,0.9
		c0.4,0.1,1.2-0.6,2.4-0.9c1.4-0.3,4.7,1.5,4.6,0.9C54.6,51.1,52.1,49.4,51.4,49.4z"/>
	<path id="path967" sodipodi:nodetypes="sssssss" class="st16" d="M54.6,60.1c0,6.1-3.1,15-6.8,15c-3.8,0-6.8-8.9-6.8-15
		c0-2.9-1.2-7.9-0.1-8.9c1.2-1.1,4.9,2.1,6.9,2.1c1.6,0,5.4-2.8,6.6-2.2C55.9,52.1,54.6,56.7,54.6,60.1z"/>
	<ellipse id="ellipse975" class="st17" cx="48.1" cy="46" rx="8.4" ry="1.1"/>
	<g id="g987" transform="translate(0.06614583,1.0252604)">
		<path id="path979" class="st0" d="M36.5,66.7v3.9c-0.6,0.6-0.9,1.3-0.9,2.2c0,1.7,1.3,3,3,3c1.7,0,3-1.3,3-3c0,0,0,0,0,0
			c0-0.8-0.3-1.6-0.9-2.2v-3.9H36.5z"/>
		<path id="path981" class="st1" d="M37.3,63.3v3h-0.8H36v4h1.3v-2.4h2.6v2.4h1.3v-4h-0.5h-0.8v-3H37.3z"/>
		<rect id="rect983" x="35.6" y="75.7" class="st2" width="6" height="1.9"/>
		<rect id="rect985" x="37" y="74.6" class="st3" width="3.1" height="1.4"/>
	</g>
	<ellipse id="ellipse989" class="st6" cx="38.5" cy="64.3" rx="2.1" ry="1.3"/>
	<g id="g995" transform="rotate(30.87835,23.184725,21.363461)">
		
			<rect id="rect991" x="68" y="32.2" transform="matrix(2.509143e-06 1 -1 2.509143e-06 109.0911 -42.1749)" class="st4" width="15.2" height="2.5"/>
		<path id="path993" sodipodi:nodetypes="sssss" class="st5" d="M85.1,26.8c0,1.9-4.2-0.7-9.4-0.7s-9.4,2.6-9.4,0.7
			c0-1.9,4.2-3.4,9.4-3.4C80.9,23.3,85.1,24.9,85.1,26.8z"/>
	</g>
	<ellipse id="ellipse997" class="st11" cx="59.8" cy="62.7" rx="2.1" ry="1.8"/>
	<path id="path1243" class="st18" d="M47.7,83.6v-8.3"/>
	<circle id="path1245" class="st19" cx="47.7" cy="77.8" r="0.9"/>
	<circle id="circle1247" class="st19" cx="47.7" cy="80.9" r="0.9"/>
</g>
<g>
	<g id="g1069" transform="rotate(16.150132,32.670796,144.25779)">
		<path id="path1061" class="st0" d="M107.6,37.7v3.9c-0.6,0.6-0.9,1.3-0.9,2.2c0,1.7,1.3,3,3,3c1.7,0,3-1.3,3-3c0,0,0,0,0,0
			c0-0.8-0.3-1.6-0.9-2.2v-3.9L107.6,37.7z"/>
		<path id="path1063" class="st1" d="M108.4,34.3v3h-0.8h-0.5v4h1.3v-2.4h2.6v2.4h1.3v-4h-0.5H111v-3H108.4z"/>
		
			<rect id="rect1065" x="108.8" y="44.7" transform="matrix(2.398392e-06 1 -1 2.398392e-06 157.4096 -62.0908)" class="st2" width="1.9" height="6"/>
		
			<rect id="rect1067" x="109" y="44.8" transform="matrix(2.398393e-06 1 -1 2.398393e-06 156.0402 -63.4022)" class="st3" width="1.4" height="3.1"/>
	</g>
	
		<ellipse id="ellipse1071" transform="matrix(0.2782 -0.9605 0.9605 0.2782 41.3121 175.0839)" class="st6" cx="137.1" cy="60.1" rx="1.3" ry="2.1"/>
	<g id="g1121" transform="rotate(16.150132,32.670796,144.25779)">
		<path id="path1113" class="st0" d="M107.6,37.7v3.9c-0.6,0.6-0.9,1.3-0.9,2.2c0,1.7,1.3,3,3,3c1.7,0,3-1.3,3-3c0,0,0,0,0,0
			c0-0.8-0.3-1.6-0.9-2.2v-3.9L107.6,37.7z"/>
		<path id="path1115" class="st1" d="M108.4,34.3v3h-0.8h-0.5v4h1.3v-2.4h2.6v2.4h1.3v-4h-0.5H111v-3H108.4z"/>
		
			<rect id="rect1117" x="108.8" y="44.7" transform="matrix(2.398392e-06 1 -1 2.398392e-06 157.4096 -62.0908)" class="st2" width="1.9" height="6"/>
		
			<rect id="rect1119" x="109" y="44.8" transform="matrix(2.398393e-06 1 -1 2.398393e-06 156.0402 -63.4022)" class="st3" width="1.4" height="3.1"/>
	</g>
	
		<ellipse id="ellipse1123" transform="matrix(0.2782 -0.9605 0.9605 0.2782 41.3121 175.0839)" class="st6" cx="137.1" cy="60.1" rx="1.3" ry="2.1"/>
	<path id="path1031" sodipodi:nodetypes="ccccc" class="st7" d="M140.8,74.3h3.6v10.7c-1.1,0.9-2.2,1.4-3.6,0V74.3z"/>
	<path id="path1271" sodipodi:nodetypes="ccccc" class="st7" d="M143.5,74.3h3.6v10.7c-1.1,0.9-2.2,1.4-3.6,0V74.3z"/>
	<path id="path1273" sodipodi:nodetypes="ssssss" class="st7" d="M150.8,65.2c0,4.7,3.6,14.3,1.6,16.5c-1,1.1-4.5-4.1-8.1-3.8
		c-7.5,0.5-6.6-5.7-6.6-12.7s2.9-12.7,6.6-12.7C147.9,52.5,150.8,58.2,150.8,65.2z"/>
	<path id="rect1327" sodipodi:nodetypes="ccccc" class="st20" d="M145.5,54.5l3.4,0.5c0.3,3.7,0.2,7.4-1.4,10.4l-3.4-0.5
		C146.3,62.1,145.7,58.3,145.5,54.5z"/>
	<path id="path1089" sodipodi:nodetypes="sssss" class="st6" d="M150.5,48.2c0,4.7-2,8.5-6.7,8.5s-8.4-5-8.4-9.7s3.8-8.5,8.5-8.5
		S150.5,43.5,150.5,48.2z"/>
	<path id="path1303" sodipodi:nodetypes="ssssscsscs" class="st21" d="M147.3,45.1c-1.6,0-0.1,6.9-9.6,6.3
		c-2.2-0.1-1.4,5.1-1.4,10.7s1.8,10.2,4,10.2s0.9-5.5,4-10.2c0.6-0.9,2.7-5.3,4-7.5c3.7,6.2,4.2,18.8,5.6,18.8
		c3.8-0.1-0.3-14.8-0.3-19.2c0.1-3.2-1.2-5.9-2.8-7.2C150.7,46.1,148.5,45.1,147.3,45.1z"/>
	<g id="g1280" transform="matrix(-0.24441543,0.96967061,0.96967061,0.24441543,33.27569,-3.4635153)">
		<rect id="rect1276" x="39.2" y="126.1" class="st4" width="2.5" height="-15.2"/>
		<path id="path1278" sodipodi:nodetypes="sssss" class="st5" d="M49.9,111.8c0,1.9-4.2-0.7-9.4-0.7c-5.2,0-9.4,2.6-9.4,0.7
			c0-1.9,4.2-3.4,9.4-3.4C45.7,108.4,49.9,109.9,49.9,111.8z"/>
	</g>
	<circle id="path1282" class="st6" cx="145.4" cy="66.2" r="2.4"/>
	<path id="path1095" sodipodi:nodetypes="sssss" class="st8" d="M151.1,44.4c0,2.9-3.6,1.1-8.1,1.1s-8.1,1.8-8.1-1.1
		c0-2.9,3.6-7.4,8.1-7.4S151.1,41.5,151.1,44.4z"/>
	<ellipse id="path1284" class="st22" cx="136.4" cy="44.7" rx="3.4" ry="1.1"/>
	<path id="rect1288" sodipodi:nodetypes="ccccc" class="st23" d="M136.6,37.8l5.2-0.3c-1.2,1-2.9,3-2.9,4.3l-2.2-0.2V37.8z"/>
	<ellipse id="path1286" class="st24" cx="135.8" cy="39.7" rx="1.6" ry="2.1"/>
	<path id="rect1307" sodipodi:nodetypes="ccccc" class="st10" d="M136.6,51.6c1.9-2,4.6-2.7,7.9-1.7l0.3,1.6c-2.5-0.1-5.1,0-7.9,1.7
		L136.6,51.6z"/>
	<ellipse class="st13" cx="134.4" cy="47.4" rx="1.8" ry="0.5"/>
	<ellipse class="st13" cx="136.6" cy="48.6" rx="1.8" ry="0.5"/>
	
		<ellipse id="path1321" transform="matrix(0.2955 -0.9553 0.9553 0.2955 55.6015 171.2095)" class="st25" cx="143.9" cy="47.9" rx="2" ry="0.9"/>
</g>
</svg>
